<?xml version="1.0" standalone="no"?>
<!DOCTYPE svg PUBLIC "-//W3C//DTD SVG 1.1//EN" "http://www.w3.org/Graphics/SVG/1.1/DTD/svg11.dtd" >
<svg xmlns="http://www.w3.org/2000/svg">
<metadata></metadata>
<defs>
<font id="kiaotfmedium" horiz-adv-x="559" vert-adv-y="1000" >
<font-face units-per-em="1000" ascent="800" descent="-200" />
<missing-glyph horiz-adv-x="500" />
<glyph horiz-adv-x="1000" vert-adv-y="0" />
<glyph horiz-adv-x="1000" vert-adv-y="0" />
<glyph unicode="&#xd;" horiz-adv-x="1000" vert-adv-y="0" />
<glyph horiz-adv-x="280" />
<glyph unicode="!" horiz-adv-x="289" d="M92 0v104h103v-104h-103zM94 727h103l-12 -539h-80z" />
<glyph unicode="&#x22;" horiz-adv-x="372" d="M57 505v223h97v-223h-97zM218 505v223h97v-223h-97z" />
<glyph unicode="#" horiz-adv-x="610" d="M26 224v80h119l20 127h-112v80h126l33 208h89l-33 -208h126l33 208h89l-33 -208h102v-80h-115l-21 -127h109v-80h-121l-35 -219h-89l35 219h-126l-35 -219h-90l36 219h-107zM234 304h126l21 127h-126z" />
<glyph unicode="$" horiz-adv-x="580" d="M39 532q0 164 220 176v72h69v-72q87 -4 176 -32v-68q-87 20 -176 23v-226q113 -30 163.5 -69t50.5 -116q0 -94 -56 -146t-158 -60v-88h-69v87q-112 5 -207 36v68q121 -23 207 -26v246q-113 28 -166.5 70.5t-53.5 124.5zM138 534q0 -50 26.5 -71.5t94.5 -39.5v208 q-63 -4 -92 -28t-29 -69zM328 93q114 15 114 125q0 42 -26.5 63.5t-87.5 38.5v-227z" />
<glyph unicode="%" horiz-adv-x="883" d="M41 531q0 91 45 145.5t122 54.5t121.5 -54t44.5 -146q0 -91 -44 -142.5t-122 -51.5q-79 0 -123 51t-44 143zM136 534q0 -66 15.5 -95t56.5 -29t56.5 29t15.5 95q0 65 -16 93.5t-56 28.5t-56 -28.5t-16 -93.5zM158 -16l482 755h81l-481 -755h-82zM509 190q0 91 45 145.5 t122 54.5t121.5 -54t44.5 -146q0 -91 -44 -142.5t-122 -51.5q-79 0 -123 51t-44 143zM604 193q0 -66 15.5 -95t56.5 -29t56.5 29t15.5 95q0 65 -16 93.5t-56 28.5t-56 -28.5t-16 -93.5z" />
<glyph unicode="&#x26;" horiz-adv-x="663" d="M38 198q0 75 40 123t116 86q-66 78 -66 155q0 86 51 127.5t134 41.5q81 0 127.5 -41t46.5 -114q0 -124 -152 -197l155 -187q32 60 39 157h70q-5 -130 -60 -215l107 -129h-113l-52 61q-79 -73 -192 -73q-120 0 -185.5 52t-65.5 153zM135 208q0 -65 38.5 -101.5 t114.5 -36.5q91 0 146 52l-188 223q-111 -58 -111 -137zM224 567q0 -56 47 -111l12 -15q33 17 54 31t39 41t18 61q0 85 -82 85q-88 0 -88 -92z" />
<glyph unicode="'" horiz-adv-x="209" d="M56 505v223h97v-223h-97z" />
<glyph unicode="(" horiz-adv-x="350" d="M57 345v18q0 131 52 241t136 192h80q-77 -82 -125.5 -194t-48.5 -230v-28q0 -115 49.5 -232t124.5 -201h-80q-84 82 -136 192.5t-52 241.5z" />
<glyph unicode=")" horiz-adv-x="350" d="M22 -89q77 83 125.5 195t48.5 230v28q0 115 -49 231t-125 201h81q84 -82 136 -192t52 -241v-18q0 -131 -52.5 -242t-135.5 -192h-81z" />
<glyph unicode="*" horiz-adv-x="389" d="M40 581l95 47l-95 48l34 59l90 -58l-4 110h69l-3 -110l89 58l34 -59l-95 -48l95 -47l-34 -60l-89 59l3 -110h-69l4 110l-90 -59z" />
<glyph unicode="+" horiz-adv-x="530" d="M49 330v77h175v182h83v-182h174v-77h-174v-182h-83v182h-175z" />
<glyph unicode="," horiz-adv-x="260" d="M41 -119l56 223h103l-85 -223h-74z" />
<glyph unicode="-" horiz-adv-x="530" d="M70 331h390v78h-390v-78z" />
<glyph unicode="." horiz-adv-x="260" d="M78 0v104h103v-104h-103z" />
<glyph unicode="/" horiz-adv-x="400" d="M35 -79l241 865h96l-241 -865h-96z" />
<glyph unicode="0" horiz-adv-x="600" d="M40 357q0 377 261 377q258 0 258 -377q0 -188 -64.5 -278t-194.5 -90q-260 0 -260 368zM145 357q0 -149 37 -219.5t118 -70.5t117.5 70.5t36.5 219.5q0 299 -153 299q-156 0 -156 -299z" />
<glyph unicode="1" horiz-adv-x="600" d="M168 612v71l224 54v-737h-101v632z" />
<glyph unicode="2" horiz-adv-x="600" d="M70 0v78l169 166q81 79 120 144.5t39 130.5q0 72 -33 104t-118 32q-78 0 -171 -26v70q36 14 91 24.5t94 10.5q122 0 182 -51t60 -156q0 -85 -44.5 -157.5t-146.5 -171.5l-123 -120h341l-30 -78h-430z" />
<glyph unicode="3" horiz-adv-x="600" d="M65 23v70q114 -24 210 -24q81 0 117 31t38 98q0 81 -52 110.5t-155 29.5h-36v78h36q179 0 179 136q0 52 -28.5 76.5t-98.5 26.5q-92 0 -185 -26v70q36 14 91.5 24.5t93.5 10.5q117 0 173.5 -43.5t56.5 -135.5q0 -121 -145 -170q174 -28 174 -187q-1 -208 -245 -208 q-106 0 -224 33z" />
<glyph unicode="4" horiz-adv-x="600" d="M23 151v82l315 494h125v-500h133l-30 -76h-103v-151h-97v151h-343zM122 227h244v389z" />
<glyph unicode="5" horiz-adv-x="600" d="M71 24v70q115 -24 210 -24q144 0 144 148q0 91 -40 122t-144 31q-47 0 -141 -8l20 364h395l-30 -78h-269l-11 -207q32 7 77 7q124 0 185.5 -56t61.5 -175q0 -112 -59.5 -169.5t-174.5 -57.5q-106 0 -224 33z" />
<glyph unicode="6" horiz-adv-x="600" d="M45 335q0 103 16.5 177.5t42 116.5t65 66.5t76 31.5t84.5 7q82 0 185 -31v-70q-134 31 -206 24q-73 -7 -114 -60t-43 -181q91 35 184 35q108 0 164 -54.5t56 -160.5q0 -114 -62.5 -180.5t-182.5 -66.5q-265 0 -265 346zM150 336q0 -54 3.5 -92t13 -73.5t27 -57t46.5 -34 t69 -12.5q79 0 110.5 40.5t31.5 118.5q0 85 -32.5 115.5t-110.5 30.5q-84 0 -158 -29v-7z" />
<glyph unicode="7" horiz-adv-x="600" d="M66 647v80h468v-79l-303 -648h-104l304 647h-365z" />
<glyph unicode="8" horiz-adv-x="600" d="M32 188q0 128 154 186q-133 58 -133 175q0 85 64 136t179 51q113 0 178 -51.5t65 -135.5q0 -58 -38.5 -103.5t-97.5 -71.5q164 -61 164 -186q0 -90 -71 -145.5t-199 -55.5q-126 0 -195.5 55.5t-69.5 145.5zM133 188q0 -58 42 -90.5t122 -32.5q79 0 122 34t43 89 q0 57 -46 97.5t-119 52.5q-76 -13 -120 -52.5t-44 -97.5zM158 549q0 -55 31.5 -85.5t107.5 -54.5q73 25 106 55.5t33 84.5q0 51 -34.5 80t-104.5 29q-67 0 -103 -29.5t-36 -79.5z" />
<glyph unicode="9" horiz-adv-x="600" d="M45 477q0 121 61 189t184 68q265 0 265 -346q0 -98 -15 -170.5t-39 -115t-60 -68.5t-71 -35t-80 -10q-97 0 -204 33v70q113 -25 176 -25q85 0 134.5 48.5t52.5 171.5q-91 -35 -184 -35q-107 0 -163.5 59t-56.5 166zM149 487q0 -86 33 -121t110 -35q83 0 158 29 q0 60 -2.5 98t-11 80t-25.5 65t-47 38t-73 15q-79 0 -110.5 -40t-31.5 -129z" />
<glyph unicode=":" horiz-adv-x="267" d="M84 137h99v104h-99v-104zM84 476h99v104h-99v-104z" />
<glyph unicode=";" horiz-adv-x="246" d="M14 18h83l85 223h-112zM75 476h99v104h-99v-104z" />
<glyph unicode="&#x3c;" horiz-adv-x="530" d="M71 332v73l388 248v-95l-291 -190l291 -188v-97z" />
<glyph unicode="=" horiz-adv-x="530" d="M51 239v77h428v-77h-428zM51 422v76h428v-76h-428z" />
<glyph unicode="&#x3e;" horiz-adv-x="530" d="M71 83l388 249v73l-388 248v-95l291 -190l-291 -188v-97z" />
<glyph unicode="?" horiz-adv-x="470" d="M40 642v67q102 35 186 35q89 0 146 -45.5t57 -134.5q0 -73 -24.5 -128t-82.5 -102q-42 -35 -59.5 -58t-17.5 -57v-31h-85v41q0 50 24 83.5t82 79.5q67 55 67 142q0 68 -30.5 100t-98.5 32q-81 0 -164 -24zM151 0v104h103v-104h-103z" />
<glyph unicode="@" horiz-adv-x="912" d="M49 188q0 90 29.5 173.5t84 150t141.5 106t193 39.5q166 0 266 -100.5t100 -256.5q0 -143 -62 -224t-170 -81q-82 0 -107 57q-23 -25 -58 -41t-72 -16q-70 0 -108.5 46t-38.5 126q0 133 59.5 212t161.5 79q68 0 114 -37q0 2 1.5 12t2.5 15h90l-63 -332q-7 -43 32 -43 q61 0 95 57.5t34 163.5q0 131 -71 210t-207 79q-114 0 -196.5 -54.5t-121.5 -142t-39 -197.5q0 -144 81 -226.5t237 -82.5q22 0 46.5 2.5t42.5 6t43 10t36 9.5t36 11t28 9v-70q-133 -50 -233 -50q-193 0 -300 100t-107 280zM345 168q0 -45 19 -72.5t52 -27.5q58 0 101 43 l45 243q-12 13 -38.5 21t-53.5 8q-63 0 -94 -59t-31 -156z" />
<glyph unicode="A" horiz-adv-x="651" d="M15 0l237 727h149l235 -727h-102l-60 186h-297l-60 -186h-102zM202 264h247l-123 386z" />
<glyph unicode="B" horiz-adv-x="643" d="M70 0v727h276q121 0 173.5 -47.5t52.5 -151.5t-87 -152q52 -19 80 -57.5t28 -115.5q0 -203 -236 -203h-287zM171 78h189q128 0 128 125q0 126 -128 126h-189v-251zM171 407h168q128 0 128 121q0 64 -32.5 92.5t-95.5 28.5h-168v-242z" />
<glyph unicode="C" horiz-adv-x="581" d="M50 363q0 371 284 371q110 0 212 -34v-68q-106 24 -194 24q-103 0 -150 -74t-47 -219q0 -290 198 -290q21 0 41.5 1t32.5 2t33 4.5t26 4.5t31 6t29 6v-68q-106 -34 -212 -34q-147 0 -215.5 98.5t-68.5 269.5z" />
<glyph unicode="D" horiz-adv-x="673" d="M70 0v727h261q162 0 224.5 -87.5t62.5 -262.5q0 -71 -7.5 -125t-26.5 -103t-51 -80.5t-82.5 -50t-119.5 -18.5h-261zM172 79h147q59 0 98.5 22.5t59.5 66t28 93t8 116.5q0 66 -7.5 111.5t-28 83.5t-60 57t-98.5 19h-147v-569z" />
<glyph unicode="E" horiz-adv-x="601" d="M70 0v727h486v-79h-384v-240h367l-30 -80h-337v-249h384v-79h-486z" />
<glyph unicode="F" horiz-adv-x="572" d="M70 0v727h467v-79h-365v-240h332l-30 -80h-302v-328h-102z" />
<glyph unicode="G" horiz-adv-x="682" d="M50 364q0 180 68 275t219 95q121 0 229 -34v-70q-103 26 -196 26h-19q-104 -4 -150 -74.5t-46 -217.5q0 -291 195 -291q50 0 97 10q10 2 31.5 7t32.5 8v221h-197v78h298v-397h-101v32q-22 -8 -68 -22q-53 -15 -106 -15q-150 0 -218.5 98t-68.5 271z" />
<glyph unicode="H" horiz-adv-x="686" d="M70 0v727h102v-318h342v318h102v-727h-102v328h-342v-328h-102z" />
<glyph unicode="I" horiz-adv-x="242" d="M70 0v727h102v-727h-102z" />
<glyph unicode="J" horiz-adv-x="395" d="M20 12v68q64 -11 121 -11q46 0 64 20.5t18 72.5v565h102v-580q0 -71 -33 -109.5t-109 -43.5q-7 -1 -17 -1q-25 0 -63 5q-52 5 -83 14z" />
<glyph unicode="K" horiz-adv-x="632" d="M70 0v727h101v-316l316 316h125l-353 -358l358 -369h-128l-318 327v-327h-101z" />
<glyph unicode="L" horiz-adv-x="540" d="M70 0v727h102v-648h348l-30 -79h-420z" />
<glyph unicode="M" horiz-adv-x="851" d="M70 0v727h172l184 -624l183 624h172v-727h-98v654l-185 -626h-145l-185 626v-654h-98z" />
<glyph unicode="N" horiz-adv-x="702" d="M70 0v727h165l299 -650v650h98v-727h-165l-300 652v-652h-97z" />
<glyph unicode="O" horiz-adv-x="687" d="M50 360q0 189 66.5 281.5t225.5 92.5t227 -92.5t68 -281.5t-67.5 -277t-227.5 -88q-159 0 -225.5 88.5t-66.5 276.5zM155 360q0 -151 42 -219t145 -68q105 0 147.5 67t42.5 220q0 151 -43 223.5t-147 72.5q-102 0 -144.5 -72.5t-42.5 -223.5z" />
<glyph unicode="P" horiz-adv-x="642" d="M70 0v727h284q123 0 180.5 -58t57.5 -183q0 -256 -238 -256h-183v-230h-101zM171 309h170q73 0 109.5 47.5t36.5 129.5t-35.5 122t-110.5 40h-170v-339z" />
<glyph unicode="Q" horiz-adv-x="687" d="M50 360q0 189 66.5 281.5t225.5 92.5t227 -92.5t68 -281.5q0 -142 -36.5 -225.5t-120.5 -117.5q-5 -2 -17 -6l120 -149h-117l-107 133h-17q-159 0 -225.5 88.5t-66.5 276.5zM155 360q0 -151 42 -219t145 -68q105 0 147.5 67t42.5 220q0 151 -43 223.5t-147 72.5 q-102 0 -144.5 -72.5t-42.5 -223.5z" />
<glyph unicode="R" horiz-adv-x="653" d="M70 0v727h283q125 0 182 -52t57 -174q0 -124 -59 -183q-31 -31 -76 -44l153 -274h-112l-144 260h-1h-182v-260h-101zM171 339h169q147 0 147 162q0 80 -35 113.5t-112 33.5h-169v-309z" />
<glyph unicode="S" horiz-adv-x="570" d="M43 545q0 189 246 189q107 -2 204 -33v-67q-92 22 -194 22q-35 0 -60 -4t-49.5 -14.5t-37.5 -33.5t-13 -57q0 -57 36.5 -82t136.5 -52q114 -28 166 -71.5t52 -130.5q0 -108 -66 -163q-64 -53 -177 -53h-8q-120 2 -223 36v67q123 -25 222 -25q80 0 118 32.5t38 103.5 q0 51 -37 74.5t-131 46.5q-111 25 -167 75t-56 140z" />
<glyph unicode="T" horiz-adv-x="647" d="M25 647v80h607l-30 -80h-228v-647h-102v647h-247z" />
<glyph unicode="U" horiz-adv-x="676" d="M70 230v497h103v-496q0 -156 164 -156q166 0 166 156v496h103v-497q0 -124 -67.5 -179.5t-201.5 -55.5q-133 0 -200 55.5t-67 179.5z" />
<glyph unicode="V" horiz-adv-x="659" d="M19 727h107l204 -646l203 646h107l-236 -727h-148z" />
<glyph unicode="W" horiz-adv-x="932" d="M15 727h104l128 -652l141 652h156l141 -652l128 652h104l-155 -727h-155l-141 648l-141 -648h-155z" />
<glyph unicode="X" horiz-adv-x="640" d="M19 0l244 363l-244 364h114l187 -279l188 279h113l-244 -363l244 -364h-114l-188 279l-187 -279h-113z" />
<glyph unicode="Y" horiz-adv-x="642" d="M15 727h112l194 -317l196 317h110l-254 -406v-321h-103v321z" />
<glyph unicode="Z" horiz-adv-x="596" d="M58 0v83l367 564h-367v80h480v-80l-374 -567h385l-31 -80h-460z" />
<glyph unicode="[" horiz-adv-x="339" d="M65 -82v871h239v-78h-144v-716h144v-77h-239z" />
<glyph unicode="\" horiz-adv-x="932" d="M15 373h96l69 -373h155l75 373h111l76 -373h155l69 373h97v80h-82l51 274h-104l-46 -274h-138l-55 274h-156l-55 -274h-139l-45 274h-104l51 -274h-81v-80zM207 373h110l-60 -298zM426 453l40 195l39 -195h-79zM615 373h109l-49 -298z" />
<glyph unicode="]" horiz-adv-x="339" d="M35 -5h145v716h-145v78h239v-871h-239v77z" />
<glyph unicode="^" horiz-adv-x="567" d="M46 380l183 348h104l188 -348h-96l-142 267l-141 -267h-96z" />
<glyph unicode="_" horiz-adv-x="547" d="M41 -86h465v-72h-465v72z" />
<glyph unicode="`" horiz-adv-x="258" d="M55 728l65 -223h78l-36 223h-107z" />
<glyph unicode="a" d="M43 152q0 62 26 101.5t95 59.5q72 24 229 24v14q0 66 -38.5 85.5t-129.5 19.5q-63 0 -135 -14v68q84 21 185 21q98 0 158.5 -41t60.5 -120v-370h-96v43q-96 -50 -195 -50q-74 0 -117 41.5t-43 117.5zM148 159q0 -96 98 -96q71 0 147 48v158q-112 0 -179 -19 q-35 -10 -50.5 -30t-15.5 -61z" />
<glyph unicode="b" horiz-adv-x="574" d="M65 0h101v31q82 -39 147 -39q117 0 167.5 69t50.5 198q0 131 -50.5 201.5t-167.5 70.5q-63 0 -147 -28v249l-101 -30v-722zM166 98v331q75 26 136 26q49 0 77.5 -28t37.5 -68.5t9 -99.5q0 -94 -26 -143t-98 -49q-66 0 -136 31z" />
<glyph unicode="c" horiz-adv-x="477" d="M43 264q0 267 225 267q92 0 171 -31v-68q-83 22 -144 22q-85 0 -116 -47t-31 -143q0 -102 30.5 -148.5t117.5 -46.5q65 0 151 23v-68q-84 -32 -181 -32q-223 0 -223 272z" />
<glyph unicode="d" horiz-adv-x="574" d="M43 259q0 131 50.5 201.5t167.5 70.5q63 0 147 -28v219l101 30v-752h-101v31q-82 -39 -147 -39q-117 0 -167.5 69t-50.5 198zM148 259q0 -94 26 -143t98 -49q66 0 136 31v331q-75 26 -136 26q-49 0 -77.5 -28t-37.5 -68.5t-9 -99.5z" />
<glyph unicode="e" d="M43 257q0 146 58 210t184 64q120 0 175.5 -60t55.5 -196q0 -20 -2 -58h-369q2 -79 34 -114t110 -35q103 0 206 30v-68q-107 -37 -216 -37q-126 0 -181 63t-55 201zM145 289h273q-2 92 -29 130t-104 38q-79 0 -107.5 -38t-32.5 -130z" />
<glyph unicode="f" horiz-adv-x="415" d="M15 446h111v-446h101v446h159v79h-159v68q0 48 15 67t60 19q37 0 103 -15v68q-68 22 -125 22q-9 0 -18 -1q-136 -7 -136 -162v-66h-111v-79z" />
<glyph unicode="g" horiz-adv-x="571" d="M43 279q0 -129 49.5 -197.5t167.5 -68.5q75 0 145 33v-60q0 -66 -38.5 -85.5t-129.5 -19.5q-60 0 -132 14v-68q84 -21 182 -21t158.5 41t60.5 120v558h-101v-29q-66 34 -144 35q-120 0 -169 -62t-49 -190zM148 279q0 93 23.5 135t95.5 42q63 0 138 -33v-308 q-72 -28 -139 -28q-29 0 -51 10t-34.5 26.5t-20 42t-10 52t-2.5 61.5z" />
<glyph unicode="h" horiz-adv-x="586" d="M65 0v722l101 30v-270q2 1 29 13q85 36 167 36q78 0 118.5 -44t40.5 -116v-371h-101v371q0 45 -23 65t-70 20q-43 0 -137 -34l-24 -9v-413h-101z" />
<glyph unicode="i" horiz-adv-x="231" d="M65 0v525h101v-525h-101zM65 623v104h101v-104h-101z" />
<glyph unicode="j" horiz-adv-x="230" d="M-98 -111q47 -10 81 -11h9q38 0 54 14q19 17 19 61v572h101v-550q0 -73 -33.5 -118.5t-107.5 -49.5h-18q-52 0 -105 14v68zM65 623v104h101v-104h-101z" />
<glyph unicode="k" horiz-adv-x="528" d="M65 0v722l101 30v-445l227 218h125l-266 -256l268 -269h-125l-229 229v-229h-101z" />
<glyph unicode="l" horiz-adv-x="231" d="M65 0v722l101 30v-752h-101z" />
<glyph unicode="m" horiz-adv-x="924" d="M65 0v505l101 30v-46q8 4 13 6q85 36 167 36q81 0 120 -46q3 -3 7 -9q58 26 106 39q55 16 121 16q78 0 118.5 -44t40.5 -116v-371h-101v371q0 45 -23 65t-70 20q-57 0 -143 -37q-4 -1 -11 -3.5t-10 -4.5q4 -17 4 -40v-371h-101v371q0 45 -23 65t-70 20q-43 0 -137 -34 l-8 -3v-419h-101z" />
<glyph unicode="n" horiz-adv-x="585" d="M65 0v505l101 30v-52q4 2 14 6t14 6q86 36 167 36q78 0 118.5 -44t40.5 -116v-371h-101v371q0 45 -23 65t-70 20q-44 0 -137 -34q-16 -6 -23 -9v-413h-101z" />
<glyph unicode="o" horiz-adv-x="569" d="M43 257q0 -264 243 -264q240 0 240 264q0 274 -240 274q-243 0 -243 -274zM148 257q0 108 32.5 154t105.5 46q68 0 101.5 -47t33.5 -153q0 -102 -33.5 -146t-101.5 -44q-73 0 -105.5 43.5t-32.5 146.5z" />
<glyph unicode="p" horiz-adv-x="573" d="M65 -196v701l101 30v-39q68 34 146 35q118 0 168.5 -66.5t50.5 -194.5q0 -277 -219 -277q-62 0 -146 27v-186zM166 90q59 -21 135 -23q125 0 125 203q0 91 -26 138.5t-98 47.5q-65 0 -136 -33v-333z" />
<glyph unicode="q" horiz-adv-x="573" d="M42 270q0 -277 219 -277q62 0 146 27v-216l101 30v691h-101v-29q-68 34 -146 35q-118 0 -168.5 -66.5t-50.5 -194.5zM147 270q0 91 26 138.5t98 47.5q65 0 136 -33v-333q-59 -21 -135 -23q-125 0 -125 203z" />
<glyph unicode="r" horiz-adv-x="410" d="M65 0v505l101 30v-41q20 8 30 11q64 23 137 23q26 0 53 -3v-79q-27 2 -52 2q-40 0 -76 -5q-49 -8 -92 -22v-421h-101z" />
<glyph unicode="s" horiz-adv-x="500" d="M43 388q0 75 54 110q51 33 133 33h9q98 -3 193 -27v-69q-110 22 -191 22q-55 0 -79 -15t-24 -48q0 -38 25.5 -55.5t98.5 -31.5q105 -21 151.5 -58t46.5 -105q0 -151 -221 -151q-45 0 -102 8.5t-86 21.5v68q90 -24 179 -24q73 0 104 15.5t31 58.5q0 42 -24.5 58t-106.5 32 q-101 21 -146 56.5t-45 100.5z" />
<glyph unicode="t" horiz-adv-x="430" d="M15 447v78h110v142l101 30v-172h160v-78h-160v-299q0 -48 15 -67t60 -19q37 0 103 15v-68q-68 -22 -125 -22q-9 0 -18 1q-136 7 -136 162v297h-110z" />
<glyph unicode="u" horiz-adv-x="585" d="M65 151v354l101 30v-391q0 -40 22.5 -58t67.5 -18q51 0 163 38v419h101v-525h-101v40q-115 -47 -183 -47q-76 0 -123.5 38.5t-47.5 119.5z" />
<glyph unicode="v" horiz-adv-x="524" d="M10 525h98l155 -457l155 457h96l-180 -525h-144z" />
<glyph unicode="w" horiz-adv-x="820" d="M7 525l152 -525h144l108 449l108 -449h142l152 525h-97l-125 -455l-110 455h-139l-111 -456l-125 456h-99z" />
<glyph unicode="x" horiz-adv-x="532" d="M10 0l202 262l-202 263h108l148 -193l148 193h108l-202 -263l202 -262h-108l-148 192l-148 -192h-108z" />
<glyph unicode="y" horiz-adv-x="585" d="M65 171v334l101 30v-371q0 -40 22 -57t68 -17q39 0 83 11q36 9 80 24v400h101v-558q0 -79 -60.5 -120t-158.5 -41t-182 21v68q72 -14 132 -14q91 0 129.5 19.5t38.5 85.5v73q-50 -21 -95 -33q-43 -13 -88 -13q-76 0 -123.5 38.5t-47.5 119.5z" />
<glyph unicode="z" horiz-adv-x="515" d="M51 0v80l299 367h-297v78h411v-72l-304 -375h314l-30 -78h-393z" />
<glyph unicode="{" horiz-adv-x="420" d="M46 316v74q66 4 91.5 24.5t25.5 70.5v188q0 56 30 85.5t85 29.5h104v-72h-86q-22 0 -31.5 -9.5t-9.5 -32.5v-193q0 -49 -23.5 -81t-86.5 -45v-3q110 -19 110 -125v-194q0 -23 9.5 -32.5t31.5 -9.5h86v-72h-104q-55 0 -85 29.5t-30 85.5v188q0 50 -25.5 70t-91.5 24z" />
<glyph unicode="|" horiz-adv-x="299" d="M99 -82v871h100v-871h-100z" />
<glyph unicode="}" horiz-adv-x="420" d="M46 -9v-72h104q55 0 85 29.5t30 85.5v188q0 50 25.5 70t91.5 24v74q-66 4 -91.5 24.5t-25.5 70.5v188q0 56 -30 85.5t-85 29.5h-104v-72h86q22 0 31.5 -9.5t9.5 -32.5v-193q0 -49 23 -81t87 -45v-3q-64 -11 -87 -43.5t-23 -81.5v-194q0 -23 -9.5 -32.5t-31.5 -9.5h-86z " />
<glyph unicode="~" horiz-adv-x="462" d="M23 349q31 97 131 97q47 0 103 -48q14 -11 19.5 -15t19.5 -9t30 -5q17 0 35 16.5t29 37.5l47 -35q-35 -96 -127 -96q-41 0 -91 43q-40 33 -74 33q-43 0 -75 -52z" />
<glyph unicode="&#xa1;" horiz-adv-x="289" d="M92 421h103v104h-103v-104zM94 -197h103l-12 535h-80z" />
<glyph unicode="&#xa2;" horiz-adv-x="560" d="M36 264q0 125 60.5 190t187.5 75v101h69v-100q89 -3 159 -30v-68q-78 20 -159 22v-385q84 0 167 23v-68q-70 -28 -167 -31v-102h-69v103q-126 9 -187 75.5t-61 194.5zM138 264q0 -96 31.5 -139t114.5 -53v378q-82 -10 -114 -53t-32 -133z" />
<glyph unicode="&#xa3;" horiz-adv-x="600" d="M52 0v78q66 34 95 105.5t9 146.5h-101v72h81q-3 12 -8.5 31.5t-7.5 26.5t-5 20t-3.5 24.5t-0.5 26.5q0 96 57.5 149.5t163.5 53.5t206 -35v-70q-93 29 -207 24q-54 -2 -86.5 -30.5t-32.5 -78.5q0 -55 27 -142h207v-72h-192q16 -70 -6 -137t-78 -115h394l-30 -78h-482z " />
<glyph unicode="&#xa4;" horiz-adv-x="700" d="M27 612l51 51q16 -16 47.5 -46t47.5 -46q70 64 172 64h14q5 0 13 -2q89 -10 149 -66q37 36 101 96q4 -4 12 -12.5t12 -13.5l26 -25q-4 -3 -107 -95q45 -65 45 -152q0 -94 -51 -161q17 -16 54 -50.5t55 -50.5l-48 -52l-105 105q-71 -65 -171 -65q-99 0 -165 60 q-17 -17 -51 -50.5t-50 -49.5l-48 52q17 16 51.5 47.5t52.5 47.5q-55 74 -55 165q0 86 50 157q-68 63 -102 92zM157 363q0 -87 56 -143.5t131 -56.5q78 0 133 55.5t55 145.5q0 82 -53.5 140.5t-133.5 58.5h-1q-79 0 -133 -58t-54 -142z" />
<glyph unicode="&#xa5;" horiz-adv-x="700" d="M44 727h109l198 -320l194 320h111l-219 -340h193v-72h-231v-65h231v-72h-231v-178h-97v178h-233v72h233v65h-233v72h194z" />
<glyph unicode="&#xa6;" horiz-adv-x="299" d="M99 -145v364h100v-364h-100zM99 363v364h100v-364h-100z" />
<glyph unicode="&#xa7;" horiz-adv-x="505" d="M36 303q0 90 58 135q-51 44 -51 126q0 92 55.5 133.5t146.5 39.5q101 -4 199 -33v-83q-113 27 -197 27q-55 0 -78.5 -18t-23.5 -58q0 -47 25 -68t99 -37q108 -24 156 -69.5t48 -127.5q0 -92 -55 -136q48 -46 48 -126q0 -182 -228 -182q-46 0 -105 10.5t-89 25.5v82 q95 -29 185 -29q75 0 105 18.5t30 71.5q0 51 -24 70.5t-107 37.5q-105 25 -151 67.5t-46 122.5zM138 310q0 -47 25 -68t99 -37q34 -9 72 -22q37 25 37 83q0 51 -23.5 69.5t-107.5 39.5q-52 14 -53 14q-49 -17 -49 -79z" />
<glyph unicode="&#xa8;" horiz-adv-x="540" d="M129 795v104h101v-104h-101zM331 795v104h101v-104h-101z" />
<glyph unicode="&#xa9;" horiz-adv-x="800" d="M34 360q0 154 104.5 260.5t260.5 106.5q155 0 261 -107t106 -260t-106 -260.5t-261 -107.5t-260 107t-105 261zM96 360q0 -138 85 -227.5t218 -89.5q132 0 218.5 89.5t86.5 227.5t-86 226.5t-219 88.5t-218 -88t-85 -227zM226 362q0 93 44.5 147.5t126.5 54.5 q68 0 128 -23v-62q-56 17 -108 17q-60 0 -83.5 -32.5t-23.5 -101.5q0 -74 23.5 -106t84.5 -32q52 0 113 18v-62q-60 -24 -136 -24q-82 0 -125.5 55t-43.5 151z" />
<glyph unicode="&#xaa;" horiz-adv-x="500" d="M87 483q0 42 18 68.5t67 43.5q40 15 143 15v1q0 38 -23 49t-77 11q-46 0 -96 -11v60q62 17 127 17q69 0 109.5 -28.5t40.5 -85.5v-248h-78v23q-57 -28 -119 -28q-51 0 -81.5 29.5t-30.5 83.5zM173 487q0 -53 54 -53q47 0 88 27v89q-71 -1 -106 -12q-19 -6 -27.5 -17.5 t-8.5 -33.5z" />
<glyph unicode="&#xab;" horiz-adv-x="499" d="M45 257l154 223h77l-129 -223l129 -222h-77zM225 257l154 223h77l-129 -223l129 -222h-77z" />
<glyph unicode="&#xac;" horiz-adv-x="700" d="M46 420v80h605v-278h-102v198h-503z" />
<glyph unicode="&#xad;" horiz-adv-x="500" d="M57 330h386v77h-386v-77z" />
<glyph unicode="&#xae;" horiz-adv-x="800" d="M34 360q0 154 104.5 260.5t260.5 106.5q155 0 261 -107t106 -260t-106 -260.5t-261 -107.5t-260 107t-105 261zM96 360q0 -138 85 -227.5t218 -89.5q132 0 218.5 89.5t86.5 227.5t-86 226.5t-219 88.5t-218 -88t-85 -227zM261 161v400h164q68 0 100.5 -30t32.5 -94 q0 -105 -74 -125l84 -151h-78l-80 144h-72v-144h-77zM338 365h65q41 0 60.5 16.5t19.5 55.5q0 40 -18 52.5t-62 12.5h-65v-137z" />
<glyph unicode="&#xaf;" horiz-adv-x="500" d="M0 795v67h500v-67h-500z" />
<glyph unicode="&#xb0;" horiz-adv-x="446" d="M64 590q0 -76 40 -117.5t119 -41.5q160 0 160 159q0 160 -160 160q-79 0 -119 -41.5t-40 -118.5zM139 590q0 45 20 65.5t64 20.5q45 0 65 -20.5t20 -65.5q0 -44 -20 -64.5t-65 -20.5q-44 0 -64 20.5t-20 64.5z" />
<glyph unicode="&#xb1;" horiz-adv-x="530" d="M49 10h431v76h-431v-76zM49 330v77h175v182h83v-182h174v-77h-174v-182h-83v182h-175z" />
<glyph unicode="&#xb2;" horiz-adv-x="300" d="M22 385v54l94 88q83 83 83 142q0 34 -16.5 49t-57.5 15q-46 0 -100 -16v55q55 21 108 21q71 0 104.5 -29.5t33.5 -90.5q0 -28 -8.5 -54t-28.5 -51.5t-34 -41t-44 -43.5t-41 -39h173l-21 -59h-245z" />
<glyph unicode="&#xb3;" horiz-adv-x="310" d="M17 399v55q71 -14 122 -14q38 0 55 13.5t19 44.5q0 39 -25.5 52.5t-76.5 13.5h-28v59h28q87 0 87 64q0 24 -13.5 34.5t-45.5 11.5q-56 0 -108 -16v55q55 21 108 21q131 0 131 -104q0 -60 -58 -88q74 -25 74 -103q0 -118 -140 -118q-60 0 -129 19z" />
<glyph unicode="&#xb4;" horiz-adv-x="280" d="M55 795h75l105 127h-118z" />
<glyph unicode="&#xb5;" horiz-adv-x="585" d="M65 -190v695l101 30v-399q1 -34 23 -51q23 -17 67 -17q51 0 163 38v419h101v-525h-101v40q-115 -47 -183 -47q-33 0 -67 8l-3 1v-192h-101z" />
<glyph unicode="&#xb6;" horiz-adv-x="630" d="M53 525q0 -92 48 -143t160 -59v-323h102v662h76v-662h103v727h-270q-119 0 -169 -53.5t-50 -148.5z" />
<glyph unicode="&#xb7;" horiz-adv-x="314" d="M111 270v104h101v-104h-101z" />
<glyph unicode="&#xb8;" horiz-adv-x="317" d="M71 -131v-54q47 -10 97 -10q92 0 92 81q0 72 -74 72h-22l11 65h-62l-28 -112h78q17 0 23.5 -4.5t6.5 -20.5q0 -13 -7 -18.5t-17.5 -5.5h-23.5q-34 1 -74 7z" />
<glyph unicode="&#xb9;" horiz-adv-x="226" d="M22 704v48l150 36v-403h-68v333z" />
<glyph unicode="&#xba;" horiz-adv-x="500" d="M78 547q0 -185 170 -185q88 0 127.5 47.5t39.5 137.5q0 93 -39.5 141.5t-127.5 48.5q-170 0 -170 -190zM163 547q0 67 20.5 95t64.5 28q40 0 60 -28.5t20 -94.5q0 -64 -19.5 -91t-60.5 -27q-45 0 -65 26.5t-20 91.5z" />
<glyph unicode="&#xbb;" horiz-adv-x="500" d="M45 35h77l154 222l-154 223h-77l129 -223zM225 35h77l154 222l-154 223h-77l129 -223z" />
<glyph unicode="&#xbc;" horiz-adv-x="900" d="M37 638v58l146 34v-440h-75v360q-13 -2 -39.5 -6.5t-31.5 -5.5zM122 0l493 727h76l-493 -727h-76zM490 88v57l187 293h83v-291h82l-24 -59h-58v-88h-70v88h-200zM566 147h124v196z" />
<glyph unicode="&#xbd;" horiz-adv-x="900" d="M37 638v58l146 34v-440h-75v360q-13 -2 -39.5 -6.5t-31.5 -5.5zM112 0l493 727h76l-493 -727h-76zM580 0v57l100 98q91 89 91 154q0 39 -17 55.5t-63 16.5q-42 0 -107 -18v56q69 23 115 23q149 0 149 -128q0 -51 -27 -95t-87 -102q-10 -10 -27.5 -26.5t-30.5 -29.5h190 l-23 -61h-263z" />
<glyph unicode="&#xbe;" horiz-adv-x="900" d="M28 300v56q84 -17 130 -17q44 0 62.5 16.5t19.5 51.5q0 42 -28.5 58t-83.5 16h-28v61h28q97 0 97 70q0 27 -15.5 39.5t-51.5 13.5q-53 0 -115 -19v57q67 23 115 23q73 0 107 -26.5t34 -85.5q0 -65 -64 -96q41 -12 61.5 -37.5t20.5 -73.5q-1 -129 -150 -129q-65 0 -139 22 zM178 0l493 727h76l-493 -727h-76zM522 88v57l187 293h83v-291h82l-24 -59h-58v-88h-70v88h-200zM598 147h124v196z" />
<glyph unicode="&#xbf;" horiz-adv-x="470" d="M40 -28q0 133 107 220q29 24 42.5 37.5t24 33.5t10.5 44v31h85v-41q0 -50 -24 -83.5t-82 -79.5q-67 -55 -67 -132q0 -61 31 -91.5t98 -30.5q81 0 164 24v-67q-102 -35 -186 -35q-88 0 -145.5 44t-57.5 126zM215 421v104h103v-104h-103z" />
<glyph unicode="&#xc0;" horiz-adv-x="651" d="M15 0l237 727h149l235 -727h-102l-60 186h-297l-60 -186h-102zM202 264h247l-123 386zM231 922h118l62 -127h-75z" />
<glyph unicode="&#xc1;" horiz-adv-x="651" d="M15 0l237 727h149l235 -727h-102l-60 186h-297l-60 -186h-102zM202 264h247l-123 386zM241 795h75l105 127h-118z" />
<glyph unicode="&#xc2;" horiz-adv-x="651" d="M15 0l237 727h149l235 -727h-102l-60 186h-297l-60 -186h-102zM186 795l102 127h77l106 -127h-86l-59 79l-58 -79h-82zM202 264h247l-123 386z" />
<glyph unicode="&#xc3;" horiz-adv-x="651" d="M15 0l237 727h149l235 -727h-102l-60 186h-297l-60 -186h-102zM169 795q14 104 100 104q30 0 57 -18q2 -1 5 -3.5t5 -3.5q21 -16 43 -16q16 0 25.5 11t11.5 30h63q-14 -104 -100 -104q-29 0 -67 25q-24 16 -43 16q-16 0 -25.5 -11t-11.5 -30h-63zM202 264h247l-123 386z " />
<glyph unicode="&#xc4;" horiz-adv-x="651" d="M15 0l237 727h149l235 -727h-102l-60 186h-297l-60 -186h-102zM184 795v104h101v-104h-101zM202 264h247l-123 386zM366 795v104h101v-104h-101z" />
<glyph unicode="&#xc5;" horiz-adv-x="651" d="M15 0l237 727h149l235 -727h-102l-60 186h-297l-60 -186h-102zM202 264h247l-123 386zM238 852q0 38 24.5 60.5t62.5 22.5q40 0 64.5 -22.5t24.5 -60.5q0 -35 -24.5 -57.5t-64.5 -22.5q-37 0 -62 22.5t-25 57.5zM290 852q0 -15 10.5 -23.5t25.5 -8.5q16 0 26 8.5t10 23.5 q0 33 -36 33t-36 -33z" />
<glyph unicode="&#xc6;" horiz-adv-x="900" d="M20 0l347 727h490v-79h-326v-240h310l-30 -80h-280v-249h326v-79h-424v186h-221l-88 -186h-104zM249 264h184v387z" />
<glyph unicode="&#xc7;" horiz-adv-x="581" d="M50 363q0 -262 153 -341q34 -17 75 -23l-21 -88h78q17 0 23.5 -4.5t6.5 -20.5q0 -13 -7 -18.5t-17.5 -5.5h-23.5q-34 1 -74 7v-54q47 -10 97 -10q92 0 92 81q0 72 -74 72h-22l5 37q56 2 97 8q50 8 108 26v68q-7 -1 -25.5 -5t-25.5 -5.5t-23.5 -4.5t-26.5 -4t-26 -2.5 t-32 -2t-34 -0.5q-198 0 -198 290q0 145 47 219t150 74q88 0 194 -24v68q-102 34 -212 34q-284 0 -284 -371z" />
<glyph unicode="&#xc8;" horiz-adv-x="601" d="M70 0v727h486v-79h-384v-240h367l-30 -80h-337v-249h384v-79h-486zM181 922h118l62 -127h-75z" />
<glyph unicode="&#xc9;" horiz-adv-x="601" d="M70 0v727h486v-79h-384v-240h367l-30 -80h-337v-249h384v-79h-486zM241 795h75l105 127h-118z" />
<glyph unicode="&#xca;" horiz-adv-x="601" d="M70 0v727h486v-79h-384v-240h367l-30 -80h-337v-249h384v-79h-486zM186 795l102 127h77l106 -127h-86l-59 79l-58 -79h-82z" />
<glyph unicode="&#xcb;" horiz-adv-x="601" d="M70 0v727h486v-79h-384v-240h367l-30 -80h-337v-249h384v-79h-486zM184 795v104h101v-104h-101zM366 795v104h101v-104h-101z" />
<glyph unicode="&#xcc;" horiz-adv-x="242" d="M-10 922h118l62 -127h-75zM70 0v727h102v-727h-102z" />
<glyph unicode="&#xcd;" horiz-adv-x="242" d="M70 0v727h102v-727h-102zM72 795h75l105 127h-118z" />
<glyph unicode="&#xce;" horiz-adv-x="242" d="M-21 795l102 127h77l106 -127h-86l-59 79l-58 -79h-82zM70 0v727h102v-727h-102z" />
<glyph unicode="&#xcf;" horiz-adv-x="303" d="M10 795v104h101v-104h-101zM100 0v727h102v-727h-102zM192 795v104h101v-104h-101z" />
<glyph unicode="&#xd0;" horiz-adv-x="794" d="M40 328v80h127v319h261q162 0 224.5 -87.5t62.5 -262.5q0 -71 -7.5 -125t-26.5 -103t-51 -80.5t-82.5 -50t-119.5 -18.5h-261v328h-127zM269 79h147q59 0 98.5 22.5t59.5 66t28 93t8 116.5q0 66 -7.5 111.5t-28 83.5t-60 57t-98.5 19h-147v-240h150l-30 -80h-120v-249z " />
<glyph unicode="&#xd1;" horiz-adv-x="702" d="M70 0v727h165l299 -650v650h98v-727h-165l-300 652v-652h-97zM210 795q14 104 100 104q34 0 67 -25q21 -16 43 -16q16 0 25.5 11t11.5 30h63q-14 -104 -100 -104q-30 0 -67 25q-24 16 -43 16q-16 0 -25.5 -11t-11.5 -30h-63z" />
<glyph unicode="&#xd2;" horiz-adv-x="687" d="M50 360q0 189 66.5 281.5t225.5 92.5t227 -92.5t68 -281.5t-67.5 -277t-227.5 -88q-159 0 -225.5 88.5t-66.5 276.5zM155 360q0 -151 42 -219t145 -68q105 0 147.5 67t42.5 220q0 151 -43 223.5t-147 72.5q-102 0 -144.5 -72.5t-42.5 -223.5zM231 922h118l62 -127h-75z " />
<glyph unicode="&#xd3;" horiz-adv-x="687" d="M50 360q0 189 66.5 281.5t225.5 92.5t227 -92.5t68 -281.5t-67.5 -277t-227.5 -88q-159 0 -225.5 88.5t-66.5 276.5zM155 360q0 -151 42 -219t145 -68q105 0 147.5 67t42.5 220q0 151 -43 223.5t-147 72.5q-102 0 -144.5 -72.5t-42.5 -223.5zM261 795h75l105 127h-118z " />
<glyph unicode="&#xd4;" horiz-adv-x="687" d="M50 360q0 189 66.5 281.5t225.5 92.5t227 -92.5t68 -281.5t-67.5 -277t-227.5 -88q-159 0 -225.5 88.5t-66.5 276.5zM155 360q0 -151 42 -219t145 -68q105 0 147.5 67t42.5 220q0 151 -43 223.5t-147 72.5q-102 0 -144.5 -72.5t-42.5 -223.5zM202 795l102 127h77 l106 -127h-86l-59 79l-58 -79h-82z" />
<glyph unicode="&#xd5;" horiz-adv-x="687" d="M50 360q0 189 66.5 281.5t225.5 92.5t227 -92.5t68 -281.5t-67.5 -277t-227.5 -88q-159 0 -225.5 88.5t-66.5 276.5zM155 360q0 -151 42 -219t145 -68q105 0 147.5 67t42.5 220q0 151 -43 223.5t-147 72.5q-102 0 -144.5 -72.5t-42.5 -223.5zM185 795q14 104 100 104 q30 0 57 -18q1 -1 4.5 -3.5t5.5 -3.5q21 -16 43 -16q16 0 25.5 11t11.5 30h63q-14 -104 -100 -104q-29 0 -67 25q-24 16 -43 16q-16 0 -25.5 -11t-11.5 -30h-63z" />
<glyph unicode="&#xd6;" horiz-adv-x="687" d="M50 360q0 189 66.5 281.5t225.5 92.5t227 -92.5t68 -281.5t-67.5 -277t-227.5 -88q-159 0 -225.5 88.5t-66.5 276.5zM155 360q0 -151 42 -219t145 -68q105 0 147.5 67t42.5 220q0 151 -43 223.5t-147 72.5q-102 0 -144.5 -72.5t-42.5 -223.5zM200 795v104h101v-104h-101z M382 795v104h101v-104h-101z" />
<glyph unicode="&#xd7;" horiz-adv-x="530" d="M35 190l60 -55l170 173l170 -173l60 55l-173 176l173 176l-59 56l-171 -174l-171 174l-59 -56l173 -176z" />
<glyph unicode="&#xd8;" horiz-adv-x="700" d="M56 360q0 189 66.5 281.5t225.5 92.5q84 0 138 -25q22 -10 32 -17l47 80h79l-74 -126l7 -9q66 -88 66 -277t-67.5 -277t-227.5 -88q-93 0 -142 26l-56 -96h-78l76 131q-13 12 -28 30q-64 87 -64 274zM161 360q0 -73 9 -127t30 -88l272 467q-14 14 -34 25q-35 19 -90 19 q-102 0 -144.5 -72.5t-42.5 -223.5zM249 95l10 -5q37 -17 89 -17q105 0 147.5 67t42.5 220q0 74 -10 127q-4 29 -16 60z" />
<glyph unicode="&#xd9;" horiz-adv-x="676" d="M70 230v497h103v-496q0 -156 164 -156q166 0 166 156v496h103v-497q0 -124 -67.5 -179.5t-201.5 -55.5q-133 0 -200 55.5t-67 179.5zM231 922h118l62 -127h-75z" />
<glyph unicode="&#xda;" horiz-adv-x="676" d="M70 230v497h103v-496q0 -156 164 -156q166 0 166 156v496h103v-497q0 -124 -67.5 -179.5t-201.5 -55.5q-133 0 -200 55.5t-67 179.5zM261 795h75l105 127h-118z" />
<glyph unicode="&#xdb;" horiz-adv-x="676" d="M70 230v497h103v-496q0 -156 164 -156q166 0 166 156v496h103v-497q0 -124 -67.5 -179.5t-201.5 -55.5q-133 0 -200 55.5t-67 179.5zM202 795l102 127h77l106 -127h-86l-59 79l-58 -79h-82z" />
<glyph unicode="&#xdc;" horiz-adv-x="676" d="M70 230v497h103v-496q0 -156 164 -156q166 0 166 156v496h103v-497q0 -124 -67.5 -179.5t-201.5 -55.5q-133 0 -200 55.5t-67 179.5zM200 795v104h101v-104h-101zM382 795v104h101v-104h-101z" />
<glyph unicode="&#xdd;" horiz-adv-x="642" d="M15 727h112l194 -317l196 317h110l-254 -406v-321h-103v321zM251 795h75l105 127h-118z" />
<glyph unicode="&#xde;" horiz-adv-x="642" d="M70 0v727h101v-105h143q134 0 206 -59.5t72 -181.5q0 -124 -73 -190t-205 -66h-143v-125h-101zM171 204h140q184 0 184 177q0 88 -44 125t-140 37h-140v-339z" />
<glyph unicode="&#xdf;" horiz-adv-x="620" d="M65 0v526q0 208 242 208q96 0 156.5 -39.5t60.5 -109.5q0 -34 -13.5 -62t-33 -47.5t-38.5 -37t-32.5 -37.5t-13.5 -42q0 -40 38 -61l54 -30q54 -31 80 -61t26 -82q0 -60 -50.5 -95t-130.5 -35q-98 0 -154 26v68q71 -25 158 -19q82 7 82 59q0 23 -11.5 35t-49.5 33l-46 26 q-94 52 -94 138q0 30 13.5 56.5t32.5 45t38.5 36t33 38t13.5 42.5q0 42 -32.5 62t-86.5 20q-72 0 -106.5 -34t-34.5 -109v-518h-101z" />
<glyph unicode="&#xe0;" d="M43 152q0 62 26 101.5t95 59.5q72 24 229 24v14q0 66 -38.5 85.5t-129.5 19.5q-63 0 -135 -14v68q84 21 185 21q98 0 158.5 -41t60.5 -120v-370h-96v43q-96 -50 -195 -50q-74 0 -117 41.5t-43 117.5zM148 159q0 -96 98 -96q71 0 147 48v158q-112 0 -179 -19 q-35 -10 -50.5 -30t-15.5 -61zM171 727h118l62 -127h-75z" />
<glyph unicode="&#xe1;" d="M43 152q0 62 26 101.5t95 59.5q72 24 229 24v14q0 66 -38.5 85.5t-129.5 19.5q-63 0 -135 -14v68q84 21 185 21q98 0 158.5 -41t60.5 -120v-370h-96v43q-96 -50 -195 -50q-74 0 -117 41.5t-43 117.5zM148 159q0 -96 98 -96q71 0 147 48v158q-112 0 -179 -19 q-35 -10 -50.5 -30t-15.5 -61zM221 600h75l105 127h-118z" />
<glyph unicode="&#xe2;" d="M43 152q0 62 26 101.5t95 59.5q72 24 229 24v14q0 66 -38.5 85.5t-129.5 19.5q-63 0 -135 -14v68q84 21 185 21q98 0 158.5 -41t60.5 -120v-370h-96v43q-96 -50 -195 -50q-74 0 -117 41.5t-43 117.5zM140 600l102 127h77l106 -127h-86l-59 79l-58 -79h-82zM148 159 q0 -96 98 -96q71 0 147 48v158q-112 0 -179 -19q-35 -10 -50.5 -30t-15.5 -61z" />
<glyph unicode="&#xe3;" d="M43 152q0 62 26 101.5t95 59.5q72 24 229 24v14q0 66 -38.5 85.5t-129.5 19.5q-63 0 -135 -14v68q84 21 185 21q98 0 158.5 -41t60.5 -120v-370h-96v43q-96 -50 -195 -50q-74 0 -117 41.5t-43 117.5zM119 600q14 104 100 104q30 0 57 -18q1 -1 5 -3.5t5 -3.5 q21 -16 43 -16q16 0 25.5 11t11.5 30h63q-14 -104 -100 -104q-29 0 -67 25q-24 16 -43 16q-16 0 -25.5 -11t-11.5 -30h-63zM148 159q0 -96 98 -96q71 0 147 48v158q-112 0 -179 -19q-35 -10 -50.5 -30t-15.5 -61z" />
<glyph unicode="&#xe4;" d="M43 152q0 62 26 101.5t95 59.5q72 24 229 24v14q0 66 -38.5 85.5t-129.5 19.5q-63 0 -135 -14v68q84 21 185 21q98 0 158.5 -41t60.5 -120v-370h-96v43q-96 -50 -195 -50q-74 0 -117 41.5t-43 117.5zM139 623v104h101v-104h-101zM148 159q0 -96 98 -96q71 0 147 48v158 q-112 0 -179 -19q-35 -10 -50.5 -30t-15.5 -61zM321 623v104h101v-104h-101z" />
<glyph unicode="&#xe5;" d="M43 152q0 62 26 101.5t95 59.5q72 24 229 24v14q0 66 -38.5 85.5t-129.5 19.5q-63 0 -135 -14v68q84 21 185 21q98 0 158.5 -41t60.5 -120v-370h-96v43q-96 -50 -195 -50q-74 0 -117 41.5t-43 117.5zM148 159q0 -96 98 -96q71 0 147 48v158q-112 0 -179 -19 q-35 -10 -50.5 -30t-15.5 -61zM192 664q0 38 24.5 60.5t62.5 22.5q40 0 64.5 -22.5t24.5 -60.5q0 -35 -24.5 -57.5t-64.5 -22.5q-37 0 -62 22.5t-25 57.5zM244 664q0 -15 10.5 -23.5t25.5 -8.5q16 0 26 8.5t10 23.5q0 33 -36 33t-36 -33z" />
<glyph unicode="&#xe6;" horiz-adv-x="900" d="M32 152q0 62 26 101.5t95 59.5q72 24 229 24v14q0 66 -38.5 85.5t-129.5 19.5q-63 0 -135 -14v68q84 21 185 21q100 0 156 -39q14 -9 24 -21q28 30 72 45q46 15 108 15q120 0 175.5 -60t55.5 -196q0 -19 -2 -57h-370q2 -79 34.5 -114.5t110.5 -35.5q103 0 206 30v-68 q-107 -37 -216 -37q-124 0 -182 64q-3 3 -9 11q-34 -24 -75 -43q-69 -32 -160 -32q-74 0 -117 41.5t-43 117.5zM137 159q0 -96 98 -96q41 0 87 18q39 14 78 41q-4 9 -5 17q-13 48 -13 118v12q-112 0 -179 -19q-35 -10 -50.5 -30t-15.5 -61zM483 288h275q-2 91 -29.5 130 t-104.5 39q-80 0 -108.5 -39t-32.5 -130z" />
<glyph unicode="&#xe7;" horiz-adv-x="477" d="M43 264q0 -196 120 -253q24 -10 53 -15l-20 -85h78q17 0 23.5 -4.5t6.5 -20.5q0 -13 -7 -18.5t-17.5 -5.5h-23.5q-34 1 -74 7v-54q47 -10 97 -10q92 0 92 81q0 72 -74 72h-22l5 34q46 2 80 8q46 8 87 24v68q-86 -23 -151 -23q-87 0 -117.5 46.5t-30.5 148.5q0 96 31 143 t116 47q61 0 144 -22v68q-79 31 -171 31q-225 0 -225 -267z" />
<glyph unicode="&#xe8;" d="M43 257q0 146 58 210t184 64q120 0 175.5 -60t55.5 -196q0 -20 -2 -58h-369q2 -79 34 -114t110 -35q103 0 206 30v-68q-107 -37 -216 -37q-126 0 -181 63t-55 201zM145 289h273q-2 92 -29 130t-104 38q-79 0 -107.5 -38t-32.5 -130zM161 727h118l62 -127h-75z" />
<glyph unicode="&#xe9;" d="M43 257q0 146 58 210t184 64q120 0 175.5 -60t55.5 -196q0 -20 -2 -58h-369q2 -79 34 -114t110 -35q103 0 206 30v-68q-107 -37 -216 -37q-126 0 -181 63t-55 201zM145 289h273q-2 92 -29 130t-104 38q-79 0 -107.5 -38t-32.5 -130zM221 600h75l105 127h-118z" />
<glyph unicode="&#xea;" d="M43 257q0 146 58 210t184 64q120 0 175.5 -60t55.5 -196q0 -20 -2 -58h-369q2 -79 34 -114t110 -35q103 0 206 30v-68q-107 -37 -216 -37q-126 0 -181 63t-55 201zM145 289h273q-2 92 -29 130t-104 38q-79 0 -107.5 -38t-32.5 -130zM145 600l102 127h77l106 -127h-86 l-59 79l-58 -79h-82z" />
<glyph unicode="&#xeb;" d="M43 257q0 146 58 210t184 64q120 0 175.5 -60t55.5 -196q0 -20 -2 -58h-369q2 -79 34 -114t110 -35q103 0 206 30v-68q-107 -37 -216 -37q-126 0 -181 63t-55 201zM144 623v104h101v-104h-101zM145 289h273q-2 92 -29 130t-104 38q-79 0 -107.5 -38t-32.5 -130zM326 623 v104h101v-104h-101z" />
<glyph unicode="&#xec;" horiz-adv-x="231" d="M-14 727h118l62 -127h-75zM65 0v525h101v-525h-101z" />
<glyph unicode="&#xed;" horiz-adv-x="231" d="M65 0v525h101v-525h-101zM65 600h75l105 127h-118z" />
<glyph unicode="&#xee;" horiz-adv-x="231" d="M-25 600l102 127h77l106 -127h-86l-59 79l-58 -79h-82zM65 0v525h101v-525h-101z" />
<glyph unicode="&#xef;" horiz-adv-x="252" d="M-16 623v104h101v-104h-101zM75 0v525h101v-525h-101zM166 623v104h101v-104h-101z" />
<glyph unicode="&#xf0;" horiz-adv-x="548" d="M32 257q0 -264 243 -264q240 0 240 264q0 29 -3 55q-13 178 -130 327l71 34l-29 54l-84 -41q-30 28 -46 41h-116q44 -34 86 -78l-84 -40l27 -54l98 47q29 -40 50 -80q-35 9 -80 9q-243 0 -243 -274zM137 257q0 108 32.5 154t105.5 46q78 0 106.5 -44.5t28.5 -155.5 q0 -102 -33.5 -146t-101.5 -44q-73 0 -105.5 43.5t-32.5 146.5z" />
<glyph unicode="&#xf1;" horiz-adv-x="585" d="M65 0v505l101 30v-52q4 2 14 6t14 6q86 36 167 36q78 0 118.5 -44t40.5 -116v-371h-101v371q0 45 -23 65t-70 20q-44 0 -137 -34q-16 -6 -23 -9v-413h-101zM139 600q14 104 100 104q30 0 57 -18q2 -1 5 -3.5t5 -3.5q21 -16 43 -16q16 0 25.5 11t11.5 30h63 q-14 -104 -100 -104q-29 0 -67 25q-24 16 -43 16q-16 0 -25.5 -11t-11.5 -30h-63z" />
<glyph unicode="&#xf2;" horiz-adv-x="569" d="M43 257q0 -264 243 -264q240 0 240 264q0 274 -240 274q-243 0 -243 -274zM148 257q0 108 32.5 154t105.5 46q68 0 101.5 -47t33.5 -153q0 -102 -33.5 -146t-101.5 -44q-73 0 -105.5 43.5t-32.5 146.5zM161 727h118l62 -127h-75z" />
<glyph unicode="&#xf3;" horiz-adv-x="569" d="M43 257q0 -264 243 -264q240 0 240 264q0 274 -240 274q-243 0 -243 -274zM148 257q0 108 32.5 154t105.5 46q68 0 101.5 -47t33.5 -153q0 -102 -33.5 -146t-101.5 -44q-73 0 -105.5 43.5t-32.5 146.5zM221 600h75l105 127h-118z" />
<glyph unicode="&#xf4;" horiz-adv-x="569" d="M43 257q0 -264 243 -264q240 0 240 264q0 274 -240 274q-243 0 -243 -274zM145 600l102 127h77l106 -127h-86l-59 79l-58 -79h-82zM148 257q0 108 32.5 154t105.5 46q68 0 101.5 -47t33.5 -153q0 -102 -33.5 -146t-101.5 -44q-73 0 -105.5 43.5t-32.5 146.5z" />
<glyph unicode="&#xf5;" horiz-adv-x="569" d="M43 257q0 -264 243 -264q240 0 240 264q0 274 -240 274q-243 0 -243 -274zM129 600q14 104 100 104q30 0 57 -18q2 -1 5.5 -3.5t4.5 -3.5q21 -16 43 -16q16 0 25.5 11t11.5 30h63q-14 -104 -100 -104q-29 0 -67 25q-24 16 -43 16q-16 0 -25.5 -11t-11.5 -30h-63zM148 257 q0 108 32.5 154t105.5 46q68 0 101.5 -47t33.5 -153q0 -102 -33.5 -146t-101.5 -44q-73 0 -105.5 43.5t-32.5 146.5z" />
<glyph unicode="&#xf6;" horiz-adv-x="569" d="M43 257q0 -264 243 -264q240 0 240 264q0 274 -240 274q-243 0 -243 -274zM144 623v104h101v-104h-101zM148 257q0 108 32.5 154t105.5 46q68 0 101.5 -47t33.5 -153q0 -102 -33.5 -146t-101.5 -44q-73 0 -105.5 43.5t-32.5 146.5zM326 623v104h101v-104h-101z" />
<glyph unicode="&#xf7;" horiz-adv-x="530" d="M38 331v76h453v-76h-453zM213 136v104h101v-104h-101zM213 505v104h101v-104h-101z" />
<glyph unicode="&#xf8;" horiz-adv-x="580" d="M-5 -35h82l60 72q20 -15 46 -26q47 -18 112 -18q240 0 240 264q0 66 -13 115q-12 48 -39 81l100 120h-82l-65 -78q-9 7 -31 17q-44 19 -110 19q-243 0 -243 -274q0 -61 13 -109q11 -38 28 -65zM157 257q0 108 32.5 154t105.5 46q53 0 85 -29l-216 -259q-7 34 -7 88z M193 105l222 267q15 -43 15 -115q0 -102 -33.5 -146t-101.5 -44q-38 0 -62 10q-24 9 -40 28z" />
<glyph unicode="&#xf9;" horiz-adv-x="585" d="M65 151v354l101 30v-391q0 -40 22.5 -58t67.5 -18q51 0 163 38v419h101v-525h-101v40q-115 -47 -183 -47q-76 0 -123.5 38.5t-47.5 119.5zM166 727h118l62 -127h-75z" />
<glyph unicode="&#xfa;" horiz-adv-x="585" d="M65 151v354l101 30v-391q0 -40 22.5 -58t67.5 -18q51 0 163 38v419h101v-525h-101v40q-115 -47 -183 -47q-76 0 -123.5 38.5t-47.5 119.5zM226 600h75l105 127h-118z" />
<glyph unicode="&#xfb;" horiz-adv-x="585" d="M65 151v354l101 30v-391q0 -40 22.5 -58t67.5 -18q51 0 163 38v419h101v-525h-101v40q-115 -47 -183 -47q-76 0 -123.5 38.5t-47.5 119.5zM158 600l102 127h77l106 -127h-86l-59 79l-58 -79h-82z" />
<glyph unicode="&#xfc;" horiz-adv-x="585" d="M65 151v354l101 30v-391q0 -40 22.5 -58t67.5 -18q51 0 163 38v419h101v-525h-101v40q-115 -47 -183 -47q-76 0 -123.5 38.5t-47.5 119.5zM157 623v104h101v-104h-101zM339 623v104h101v-104h-101z" />
<glyph unicode="&#xfd;" horiz-adv-x="585" d="M65 171v334l101 30v-371q0 -40 22 -57t68 -17q39 0 83 11q36 9 80 24v400h101v-558q0 -79 -60.5 -120t-158.5 -41t-182 21v68q72 -14 132 -14q91 0 129.5 19.5t38.5 85.5v73q-50 -21 -95 -33q-43 -13 -88 -13q-76 0 -123.5 38.5t-47.5 119.5zM231 600h75l105 127h-118z " />
<glyph unicode="&#xfe;" horiz-adv-x="560" d="M65 -196l101 30v197q82 -39 147 -39q117 0 167.5 69t50.5 198q0 131 -50.5 201.5t-167.5 70.5q-63 0 -147 -28v249l-101 -30v-918zM166 98v331q75 26 144 26q49 0 77.5 -28t37.5 -68.5t9 -99.5q0 -94 -26 -143t-98 -49q-74 0 -144 31z" />
<glyph unicode="&#xff;" horiz-adv-x="585" d="M65 171v334l101 30v-371q0 -40 22 -57t68 -17q39 0 83 11q36 9 80 24v400h101v-558q0 -79 -60.5 -120t-158.5 -41t-182 21v68q72 -14 132 -14q91 0 129.5 19.5t38.5 85.5v73q-50 -21 -95 -33q-43 -13 -88 -13q-76 0 -123.5 38.5t-47.5 119.5zM157 623v104h101v-104h-101z M339 623v104h101v-104h-101z" />
<glyph unicode="&#x152;" horiz-adv-x="990" d="M50 360q0 189 66.5 281.5t225.5 92.5q122 0 190 -56v49h411v-79h-309v-240h292l-30 -80h-262v-249h309v-79h-411v47q-67 -52 -190 -52q-159 0 -225.5 88.5t-66.5 276.5zM155 360q0 -151 42 -219t145 -68q102 0 145 64t45 208v29q-2 143 -45.5 212.5t-144.5 69.5 q-102 0 -144.5 -72.5t-42.5 -223.5z" />
<glyph unicode="&#x153;" horiz-adv-x="900" d="M26 257q0 -264 243 -264q117 0 183 81q68 -81 188 -81q109 0 216 37v68q-103 -30 -206 -30q-79 0 -110.5 35.5t-33.5 114.5h369q2 38 2 57q0 136 -55.5 196t-175.5 60q-138 1 -193 -95q-55 95 -184 95q-243 0 -243 -274zM131 257q0 108 32.5 154t105.5 46q67 0 100 -44.5 t35 -145.5v-21q-2 -96 -35 -137.5t-100 -41.5q-73 0 -105.5 43.5t-32.5 146.5zM506 288q4 91 32.5 130t107.5 39q76 0 103.5 -39t29.5 -130h-273z" />
<glyph unicode="&#x178;" horiz-adv-x="642" d="M15 727h112l194 -317l196 317h110l-254 -406v-321h-103v321zM184 795v104h101v-104h-101zM366 795v104h101v-104h-101z" />
<glyph unicode="&#x2dc;" horiz-adv-x="500" d="M87 795q14 104 100 104q30 0 57 -18q1 -1 5 -3.5t5 -3.5q21 -16 43 -16q16 0 25.5 11t11.5 30h63q-14 -104 -100 -104q-29 0 -67 25q-24 16 -43 16q-16 0 -25.5 -11t-11.5 -30h-63z" />
<glyph unicode="&#x2000;" horiz-adv-x="467" vert-adv-y="0" />
<glyph unicode="&#x2001;" horiz-adv-x="935" vert-adv-y="0" />
<glyph unicode="&#x2002;" horiz-adv-x="467" vert-adv-y="0" />
<glyph unicode="&#x2003;" horiz-adv-x="935" vert-adv-y="0" />
<glyph unicode="&#x2004;" horiz-adv-x="311" vert-adv-y="0" />
<glyph unicode="&#x2005;" horiz-adv-x="233" vert-adv-y="0" />
<glyph unicode="&#x2006;" horiz-adv-x="155" vert-adv-y="0" />
<glyph unicode="&#x2007;" horiz-adv-x="155" vert-adv-y="0" />
<glyph unicode="&#x2008;" horiz-adv-x="116" vert-adv-y="0" />
<glyph unicode="&#x2009;" horiz-adv-x="187" vert-adv-y="0" />
<glyph unicode="&#x200a;" horiz-adv-x="51" vert-adv-y="0" />
<glyph unicode="&#x2010;" horiz-adv-x="530" d="M70 331h390v78h-390v-78z" />
<glyph unicode="&#x2011;" horiz-adv-x="530" d="M70 331h390v78h-390v-78z" />
<glyph unicode="&#x2012;" horiz-adv-x="530" d="M70 331h390v78h-390v-78z" />
<glyph unicode="&#x2013;" horiz-adv-x="556" d="M0 214v78h556v-78h-556z" />
<glyph unicode="&#x2014;" horiz-adv-x="900" d="M0 214v78h900v-78h-900z" />
<glyph unicode="&#x2018;" horiz-adv-x="220" d="M19 504l85 223h83l-56 -223h-112z" />
<glyph unicode="&#x2019;" horiz-adv-x="220" d="M29 504l56 223h112l-85 -223h-83z" />
<glyph unicode="&#x201a;" horiz-adv-x="260" d="M37 -119l56 223h112l-85 -223h-83z" />
<glyph unicode="&#x201c;" horiz-adv-x="380" d="M19 504l85 223h83l-56 -223h-112zM191 504l85 223h83l-56 -223h-112z" />
<glyph unicode="&#x201d;" horiz-adv-x="380" d="M19 504l56 223h112l-85 -223h-83zM191 504l56 223h112l-85 -223h-83z" />
<glyph unicode="&#x201e;" horiz-adv-x="390" d="M19 -121l56 223h112l-85 -223h-83zM191 -121l56 223h112l-85 -223h-83z" />
<glyph unicode="&#x2022;" horiz-adv-x="350" d="M53 351q0 51 36 87q37 36 88 36t87 -36q37 -36 37 -87q0 -52 -37 -88q-36 -36 -87 -36t-88 36q-36 36 -36 88z" />
<glyph unicode="&#x2026;" horiz-adv-x="920" d="M102 0v104h103v-104h-103zM413 0v104h103v-104h-103zM709 0v104h103v-104h-103z" />
<glyph unicode="&#x202f;" horiz-adv-x="187" vert-adv-y="0" />
<glyph unicode="&#x2039;" horiz-adv-x="333" d="M45 257l154 223h77l-129 -223l129 -222h-77z" />
<glyph unicode="&#x203a;" horiz-adv-x="333" d="M45 35l129 224l-129 221h78l148 -218l-148 -227h-78z" />
<glyph unicode="&#x205f;" horiz-adv-x="233" vert-adv-y="0" />
<glyph unicode="&#x20ac;" horiz-adv-x="590" d="M0 258v72h70v33v35h-70v72h77q37 264 277 264q110 0 212 -34v-68q-108 24 -194 24q-159 0 -190 -186h268v-72h-274q-1 -12 -1 -35q0 -22 1 -33h274v-72h-267q32 -185 190 -185q25 0 46.5 1t42 4t33 5t36.5 7t35 7v-68q-110 -34 -212 -34q-237 0 -277 263h-77z" />
<glyph unicode="&#x2122;" horiz-adv-x="900" d="M25 724v65h335l-24 -65h-107v-305h-76v305h-128zM395 419v370h115l110 -284l110 284h115v-370h-74v285l-106 -268h-90l-106 268v-285h-74z" />
</font>
</defs>
</svg>
