<?xml version="1.0" standalone="no"?>
<!DOCTYPE svg PUBLIC "-//W3C//DTD SVG 1.1//EN" "http://www.w3.org/Graphics/SVG/1.1/DTD/svg11.dtd" >
<svg xmlns="http://www.w3.org/2000/svg">
<metadata></metadata>
<defs>
<font id="kiaotflight" horiz-adv-x="559" vert-adv-y="1000" >
<font-face units-per-em="1000" ascent="800" descent="-200" />
<missing-glyph horiz-adv-x="500" />
<glyph horiz-adv-x="0" vert-adv-y="0" />
<glyph horiz-adv-x="333" />
<glyph horiz-adv-x="280" />
<glyph unicode="!" horiz-adv-x="289" d="M109 0v94h69v-94h-69zM110 727h71l-12 -546h-48z" />
<glyph unicode="&#x22;" horiz-adv-x="372" d="M69 508v219h64v-219h-64zM240 508v219h64v-219h-64z" />
<glyph unicode="#" horiz-adv-x="610" d="M31 234v57h124l25 153h-122v57h132l35 214h57l-35 -214h166l35 214h57l-35 -214h111v-57h-120l-25 -153h118v-57h-127l-36 -226h-57l36 226h-168l-37 -226h-57l37 226h-114zM212 291h167l25 153h-167z" />
<glyph unicode="$" horiz-adv-x="580" d="M45 538q0 161 228 167v72h42v-72q89 -3 183 -30v-44q-97 19 -183 22v-254q115 -30 169 -68.5t54 -111.5q0 -93 -58.5 -143.5t-164.5 -55.5v-91h-42v91q-108 2 -214 32v46q115 -23 214 -23v274q-116 28 -172 69t-56 120zM112 541q0 -60 34 -84t127 -48v244 q-83 -2 -122 -29.5t-39 -82.5zM315 76q79 5 117 39t38 102q0 50 -37 75.5t-118 46.5v-263z" />
<glyph unicode="%" horiz-adv-x="883" d="M48 529q0 89 44 143.5t114 54.5t113.5 -54t43.5 -144t-42.5 -140.5t-114.5 -50.5t-115 50.5t-43 140.5zM110 533q0 -144 96 -144t96 144q0 141 -96 141t-96 -141zM169 -16l483 755h55l-482 -755h-56zM521 190q0 89 44 143.5t114 54.5t113.5 -54t43.5 -144 q0 -89 -42.5 -140t-114.5 -51t-115 50.5t-43 140.5zM583 194q0 -144 96 -144t96 144q0 141 -96 141t-96 -141z" />
<glyph unicode="&#x26;" horiz-adv-x="663" d="M43 185q0 135 171 218q-76 92 -76 166q0 82 49 122.5t127 40.5q76 0 120.5 -39t44.5 -109q0 -69 -44 -116t-123 -86l186 -217q42 71 54 178h46q-9 -133 -67 -217l102 -121h-76l-64 74q-80 -86 -204 -86q-116 0 -181 49.5t-65 142.5zM108 196q-2 -69 44.5 -109.5 t135.5 -39.5q104 2 172 70l-211 244q-137 -71 -141 -165zM201 574q0 -59 53 -123l23 -28q66 32 103.5 68t37.5 91q0 101 -105 101q-112 0 -112 -109z" />
<glyph unicode="'" horiz-adv-x="209" d="M73 508v219h65v-219h-65z" />
<glyph unicode="(" horiz-adv-x="350" d="M73 354q0 253 189 442h43q-76 -91 -122.5 -204t-46.5 -229v-9q0 -115 47.5 -233.5t121.5 -209.5h-43q-189 189 -189 443z" />
<glyph unicode=")" horiz-adv-x="350" d="M46 -89h43q189 189 189 443q0 253 -189 442h-43q76 -91 122.5 -204t46.5 -229v-9q0 -115 -47.5 -233.5t-121.5 -209.5z" />
<glyph unicode="*" horiz-adv-x="389" d="M51 574l106 54l-103 53l22 43l104 -68l-6 128h45l-5 -128l100 68l23 -43l-105 -53l106 -54l-24 -41l-100 66l5 -125h-45l5 125l-102 -66z" />
<glyph unicode="+" horiz-adv-x="530" d="M52 344v50h184v193h58v-193h184v-50h-184v-194h-58v194h-184z" />
<glyph unicode="," horiz-adv-x="260" d="M52 -119l61 223h71l-87 -223h-45z" />
<glyph unicode="-" horiz-adv-x="530" d="M75 343v55h380v-55h-380z" />
<glyph unicode="." horiz-adv-x="260" d="M95 0v94h69v-94h-69z" />
<glyph unicode="/" horiz-adv-x="400" d="M54 -76l240 859h64l-241 -859h-63z" />
<glyph unicode="0" horiz-adv-x="600" d="M40 357q0 197 70 287t192 90q258 0 258 -377q0 -368 -259 -368q-261 0 -261 368zM113 357q0 -163 44.5 -238t143.5 -75t142.5 74.5t43.5 238.5q0 161 -44 241.5t-141 80.5q-100 0 -144.5 -80.5t-44.5 -241.5z" />
<glyph unicode="1" horiz-adv-x="600" d="M176 639v49l208 49v-737h-69v663z" />
<glyph unicode="2" horiz-adv-x="600" d="M74 0v67l174 163q87 87 130 157t43 137q0 81 -39 116t-140 35q-79 -1 -161 -22v47q102 32 176 32q120 0 178 -49t58 -151q0 -86 -45.5 -160t-150.5 -174l-152 -143h380l-21 -55h-430z" />
<glyph unicode="3" horiz-adv-x="600" d="M71 21v45q104 -20 203 -20q95 0 138 36t45 110q0 90 -59.5 124t-175.5 34h-29v54h29q38 0 72 7t65.5 23.5t50 48t18.5 75.5q0 58 -35.5 86.5t-118.5 31.5q-105 0 -178 -21v46q99 31 178 31q224 0 224 -171q0 -128 -140 -177q170 -32 170 -192q-1 -202 -239 -202 q-107 0 -218 31z" />
<glyph unicode="4" horiz-adv-x="600" d="M25 158v72l331 497h97v-514h141l-19 -55h-122v-158h-66v158h-362zM84 213h303v456z" />
<glyph unicode="5" horiz-adv-x="600" d="M76 21v49q118 -24 204 -24q171 0 171 167q0 102 -46 137t-167 35q-66 0 -132 -6l18 348h385l-22 -54h-296l-13 -240q52 7 103 7q121 0 181.5 -55.5t60.5 -171.5q0 -109 -58 -165.5t-170 -56.5t-219 30z" />
<glyph unicode="6" horiz-adv-x="600" d="M50 333q0 75 8.5 135t22.5 101.5t36 71.5t44.5 47t53 27t56.5 13t60 3q71 0 176 -28v-46q-97 22 -160 22q-16 0 -40 -2q-42 -5 -71.5 -17t-56 -39t-40.5 -78t-15 -125v-25q47 23 107 36t106 13q105 0 159 -53.5t54 -156.5q0 -112 -61 -177.5t-178 -65.5q-137 0 -199 86.5 t-62 257.5zM123 334q0 -75 7 -124t26.5 -89t57 -58.5t96.5 -18.5q94 0 131.5 45t37.5 133q0 96 -38 130t-132 34q-82 0 -186 -41v-11z" />
<glyph unicode="7" horiz-adv-x="600" d="M72 667v57h456v-67l-313 -657h-73l320 667h-390z" />
<glyph unicode="8" horiz-adv-x="600" d="M37 182q0 129 185 192q-163 69 -163 182q0 81 63.5 130.5t173.5 49.5t174 -49.5t64 -130.5q0 -59 -41 -105.5t-115 -76.5q185 -67 185 -192q0 -87 -70 -141t-196 -54q-121 0 -190.5 54t-69.5 141zM108 182q0 -66 50.5 -103.5t141.5 -37.5q93 0 143 39t50 102 q0 61 -55 105.5t-138 61.5q-85 -16 -138.5 -60.5t-53.5 -106.5zM131 556q0 -59 40.5 -93.5t129.5 -62.5q85 28 123 62t38 94q0 59 -41 92.5t-121 33.5q-82 0 -125.5 -34t-43.5 -92z" />
<glyph unicode="9" horiz-adv-x="600" d="M50 478q0 117 61 185t178 68q137 0 199 -86.5t62 -257.5q0 -75 -8.5 -135t-22.5 -101.5t-36 -71.5t-44.5 -47t-53 -27t-56.5 -13t-60 -3q-71 0 -176 28v46q97 -22 160 -22q16 0 40 2q42 5 72 17t56 39.5t39.5 78t15.5 124.5v5q-47 -23 -107 -36t-106 -13 q-104 0 -158.5 58t-54.5 162zM121 488q0 -97 39 -135.5t131 -38.5q82 0 186 41v21q0 75 -7 125.5t-26.5 92.5t-57.5 62t-96 20q-94 0 -131.5 -48t-37.5 -140z" />
<glyph unicode=":" horiz-adv-x="267" d="M102 137h66v96h-66v-96zM102 484h66v96h-66v-96z" />
<glyph unicode=";" horiz-adv-x="246" d="M30 18h52l84 215h-78zM92 484h67v96h-67v-96z" />
<glyph unicode="&#x3c;" horiz-adv-x="530" d="M76 336v64l378 239v-62l-331 -209l331 -209v-62z" />
<glyph unicode="=" horiz-adv-x="530" d="M51 244v54h428v-54h-428zM51 440v53h428v-53h-428z" />
<glyph unicode="&#x3e;" horiz-adv-x="530" d="M76 97l378 239v64l-378 239v-62l331 -209l-331 -209v-62z" />
<glyph unicode="?" horiz-adv-x="470" d="M50 667v45q101 32 177 32q85 0 140.5 -44.5t55.5 -128.5q0 -73 -24.5 -125.5t-81.5 -102.5q-4 -4 -19 -17t-18 -16.5t-14 -14t-13.5 -15t-9.5 -14.5t-8.5 -17t-3.5 -17t-2 -21v-30h-53v40q0 34 15.5 63.5t33 47.5t56.5 52q78 74 78 159q0 74 -36.5 110t-118.5 36 q-68 0 -154 -22zM168 0v94h69v-94h-69z" />
<glyph unicode="@" horiz-adv-x="912" d="M58 188q0 90 28.5 172t82 148t138.5 105t190 39q161 0 258 -98t97 -252q0 -141 -58 -220t-162 -79q-43 0 -66.5 14.5t-33.5 48.5q-27 -27 -67.5 -45t-72.5 -18q-63 0 -98 43.5t-35 119.5q0 130 56 207t152 77q60 0 126 -52l3.5 21t4.5 21h57l-59 -322q-6 -57 47 -57 q69 0 107.5 60.5t38.5 173.5q0 138 -75.5 220.5t-220.5 82.5q-120 0 -207 -56.5t-128.5 -148t-41.5 -204.5q0 -151 85.5 -237t251.5 -86q94 0 218 42v-51q-125 -43 -219 -43q-189 0 -293 98t-104 276zM327 168q0 -50 23.5 -81t63.5 -31q55 0 119 56q20 107 45 245 q-17 14 -49.5 25.5t-59.5 11.5q-72 0 -107 -62t-35 -164z" />
<glyph unicode="A" horiz-adv-x="651" d="M27 0l252 727h94l252 -727h-68l-68 197h-327l-67 -197h-68zM181 251h290l-145 423z" />
<glyph unicode="B" horiz-adv-x="643" d="M76 0v727h273q115 0 165.5 -47t50.5 -145q-2 -111 -103 -160q60 -22 92.5 -62.5t32.5 -115.5q0 -197 -227 -197h-284zM144 54h220q151 0 151 143q0 145 -151 145h-220v-288zM144 396h198q151 0 151 139q0 74 -38.5 106t-112.5 32h-198v-277z" />
<glyph unicode="C" horiz-adv-x="581" d="M57 363q0 371 279 371q109 0 205 -30v-46q-98 20 -186 20q-118 0 -172 -80t-54 -235q0 -312 227 -312q70 0 185 22v-48q-107 -30 -205 -30q-143 0 -211 98.5t-68 269.5z" />
<glyph unicode="D" horiz-adv-x="673" d="M76 0v727h255q66 0 115 -16t80.5 -45t51 -73.5t27 -96t7.5 -119.5q0 -89 -12 -153.5t-42.5 -117.5t-87 -79.5t-139.5 -26.5h-255zM144 55h176q68 0 113 24.5t67.5 71.5t31 100t8.5 126q0 72 -8.5 121.5t-31 91t-67.5 62t-113 20.5h-176v-617z" />
<glyph unicode="E" horiz-adv-x="601" d="M76 0v727h476v-55h-407v-276h390l-20 -56h-370v-285h407v-55h-476z" />
<glyph unicode="F" horiz-adv-x="572" d="M76 0v727h457v-55h-389v-275h357l-20 -56h-337v-341h-68z" />
<glyph unicode="G" horiz-adv-x="682" d="M56 365q0 369 284 369q118 0 221 -30v-46q-102 22 -183 22q-13 0 -25 -1q-118 -5 -171.5 -81t-53.5 -233q0 -316 225 -316q46 0 94 13q59 15 92 25v244h-222v54h290v-385h-68v40q-40 -17 -97 -32q-52 -13 -102 -13q-147 0 -215.5 98.5t-68.5 271.5z" />
<glyph unicode="H" horiz-adv-x="686" d="M76 0v727h68v-329h398v329h68v-727h-68v341h-398v-341h-68z" />
<glyph unicode="I" horiz-adv-x="242" d="M87 0v727h69v-727h-69z" />
<glyph unicode="J" horiz-adv-x="395" d="M23 10v49q56 -11 120 -13q58 0 81 23.5t23 85.5v572h69v-588q0 -68 -30.5 -104.5t-99.5 -40.5q-7 -1 -16 -1q-23 0 -60 4q-53 5 -87 13z" />
<glyph unicode="K" horiz-adv-x="632" d="M80 0v727h67v-332l362 332h85l-384 -357l389 -370h-88l-364 346v-346h-67z" />
<glyph unicode="L" horiz-adv-x="540" d="M76 0v727h68v-672h368l-21 -55h-415z" />
<glyph unicode="M" horiz-adv-x="851" d="M78 0v727h113l234 -646l236 646h112v-727h-64v669l-237 -641h-94l-235 641v-669h-65z" />
<glyph unicode="N" horiz-adv-x="702" d="M78 0v727h103l379 -671v671h64v-727h-103l-380 668v-668h-63z" />
<glyph unicode="O" horiz-adv-x="687" d="M57 359q0 190 65 282.5t220 92.5t221 -93t66 -282t-65.5 -276.5t-221.5 -87.5q-154 0 -219.5 88.5t-65.5 275.5zM129 359q0 -163 48 -236.5t165 -73.5q119 0 167.5 72.5t48.5 237.5q0 163 -49.5 242t-166.5 79q-116 0 -164.5 -78.5t-48.5 -242.5z" />
<glyph unicode="P" horiz-adv-x="642" d="M76 0v727h282q229 0 229 -244q0 -248 -229 -248h-214v-235h-68zM144 290h201q170 0 170 193q0 189 -170 189h-201v-382z" />
<glyph unicode="Q" horiz-adv-x="687" d="M57 359q0 190 65 282.5t220 92.5t221 -93t66 -282q0 -142 -35.5 -225t-116.5 -117q-9 -4 -20 -7l119 -146h-80l-107 133q-30 -2 -47 -2q-154 0 -219.5 88.5t-65.5 275.5zM129 359q0 -163 48 -236.5t165 -73.5q119 0 167.5 72.5t48.5 237.5q0 163 -49.5 242t-166.5 79 q-116 0 -164.5 -78.5t-48.5 -242.5z" />
<glyph unicode="R" horiz-adv-x="653" d="M76 0v727h281q119 0 176 -55t57 -174q0 -122 -61 -177q-35 -31 -84 -45l155 -276h-77l-146 265h-21h-213v-265h-67zM143 320h201q174 0 174 178q0 90 -42.5 132t-130.5 42h-202v-352z" />
<glyph unicode="S" horiz-adv-x="570" d="M49 552q0 86 61 134t183 48q100 -2 200 -33v-47q-123 25 -190 26q-188 0 -188 -126q0 -68 42.5 -97t156.5 -58q111 -30 163.5 -73t52.5 -122q0 -102 -66 -156q-64 -53 -173 -53h-8q-117 2 -222 32v48q142 -26 221 -26q182 0 182 153q0 56 -46.5 86.5t-143.5 54.5 q-112 28 -168.5 75t-56.5 134z" />
<glyph unicode="T" horiz-adv-x="647" d="M28 671v56h601l-20 -56h-252v-671h-68v671h-261z" />
<glyph unicode="U" horiz-adv-x="676" d="M76 225v502h69v-501q0 -89 51.5 -132t141.5 -43q193 0 193 175v501h69v-502q0 -120 -66 -175t-196 -55q-129 0 -195.5 55t-66.5 175z" />
<glyph unicode="V" horiz-adv-x="659" d="M25 727h69l236 -674l235 674h69l-257 -727h-94z" />
<glyph unicode="W" horiz-adv-x="932" d="M21 727h69l150 -672l180 672h94l180 -673l150 673h69l-173 -727h-93l-180 669l-180 -669h-93z" />
<glyph unicode="X" horiz-adv-x="640" d="M26 727h78l216 -309l216 309h76l-254 -363l255 -364h-78l-216 309l-217 -309h-75l254 363z" />
<glyph unicode="Y" horiz-adv-x="642" d="M26 727h75l221 -346l220 346h75l-260 -405v-322h-70v322z" />
<glyph unicode="Z" horiz-adv-x="596" d="M61 671v56h469v-67l-396 -604h413l-21 -56h-458v68l396 603h-403z" />
<glyph unicode="[" horiz-adv-x="339" d="M70 -82v871h229v-55h-167v-763h167v-53h-229z" />
<glyph unicode="\" horiz-adv-x="932" d="M15 385h108l81 -385h93l98 385h144l98 -385h93l81 385h107v57h-95l60 285h-69l-55 -285h-173l-72 285h-94l-72 -285h-173l-55 285h-69l60 -285h-96v-57zM186 385h147l-83 -330zM409 442l58 227l57 -227h-115zM600 385h148l-64 -331z" />
<glyph unicode="]" horiz-adv-x="339" d="M40 -29v-53h229v871h-229v-55h167v-763h-167z" />
<glyph unicode="^" horiz-adv-x="567" d="M60 379l190 348h62l195 -348h-61l-165 295l-160 -295h-61z" />
<glyph unicode="_" horiz-adv-x="547" d="M41 -109h465v-49h-465v49z" />
<glyph unicode="`" horiz-adv-x="258" d="M73 727l64 -217h45l-36 217h-73z" />
<glyph unicode="a" d="M47 147q0 59 26.5 98t91.5 60q70 23 255 23v27q0 78 -44.5 101t-151.5 23q-66 -2 -130 -13v46q93 19 183 19q96 0 154 -39t58 -116v-376h-65v54q-109 -61 -223 -61q-70 0 -112 40t-42 114zM120 154q0 -111 126 -111q86 0 174 57v184q-138 0 -213 -21q-44 -13 -65.5 -38.5 t-21.5 -70.5z" />
<glyph unicode="b" horiz-adv-x="574" d="M71 0h69v43q104 -48 174 -48q114 0 163 69.5t49 199.5t-49.5 198t-162.5 68q-62 0 -174 -37v260l-69 -20v-733zM140 92v350q92 34 162 34q86 0 118.5 -55t32.5 -157q0 -106 -32 -162t-119 -56q-55 0 -162 46z" />
<glyph unicode="c" horiz-adv-x="477" d="M47 264q0 125 57 196t171 71q75 0 159 -28v-43q-67 17 -131 17q-102 0 -144 -54t-42 -159q0 -112 42 -165.5t146 -53.5q64 0 137 18v-43q-78 -28 -169 -28q-113 0 -169.5 72t-56.5 200z" />
<glyph unicode="d" horiz-adv-x="574" d="M49 264q0 130 49.5 198t162.5 68q62 0 174 -37v240l69 20v-753h-69v43q-104 -48 -174 -48q-114 0 -163 69.5t-49 199.5zM122 264q0 -106 32 -162t119 -56q55 0 162 46v350q-92 34 -162 34q-86 0 -118.5 -55t-32.5 -157z" />
<glyph unicode="e" d="M48 257q0 274 237 274q226 0 226 -255q0 -34 -1 -47h-393q4 -97 41 -140.5t131 -43.5q107 0 200 26v-46q-96 -32 -210 -32q-123 0 -177 64t-54 200zM117 277h328q-2 107 -38.5 154.5t-121.5 47.5q-88 0 -125 -47t-43 -155z" />
<glyph unicode="f" horiz-adv-x="415" d="M18 458h123v-458h69v458h173v56h-173v84q0 57 19.5 80t78.5 23q40 0 94 -13v45q-68 21 -119 21q-8 0 -16 -1q-126 -7 -126 -157v-82h-123v-56z" />
<glyph unicode="g" horiz-adv-x="571" d="M48 278q0 -128 49.5 -193.5t163.5 -65.5q79 0 172 43v-79q0 -78 -44 -101t-150 -23q-54 0 -129 15v-49q93 -19 179 -19q96 0 154 39.5t58 116.5v563h-68v-48q-96 49 -171 50q-114 0 -164 -61.5t-50 -187.5zM121 278q0 101 31 148t116 47q64 0 165 -44v-320 q-101 -38 -166 -38q-83 0 -114.5 53.5t-31.5 153.5z" />
<glyph unicode="h" horiz-adv-x="586" d="M71 0v732l68 20v-278q57 26 118 44q49 14 98 14h12q69 -3 109 -45t40 -109v-378h-69v378q0 51 -32 75.5t-85 24.5q-49 0 -139 -36q-18 -7 -52 -21v-421h-68z" />
<glyph unicode="i" horiz-adv-x="231" d="M80 0v525h69v-525h-69zM80 633v94h69v-94h-69z" />
<glyph unicode="j" horiz-adv-x="230" d="M-95 -136q47 -7 69 -8h14q48 0 69 18q24 22 24 77v574h68v-553q0 -71 -31.5 -115.5t-99.5 -48.5h-16q-53 0 -97 11v45zM80 633v94h69v-94h-69z" />
<glyph unicode="k" horiz-adv-x="528" d="M75 0v732l68 20v-458l266 231h88l-295 -255l297 -270h-86l-270 244v-244h-68z" />
<glyph unicode="l" horiz-adv-x="231" d="M82 0v733l69 20v-753h-69z" />
<glyph unicode="m" horiz-adv-x="924" d="M72 0v515l68 20v-58q4 2 50 22q87 34 162 34q76 0 112 -44l9 -12q63 28 115 41q56 15 116 15q73 0 110.5 -42.5t37.5 -112.5v-378h-68v378q0 54 -29 78.5t-88 24.5q-53 0 -140 -34q-6 -3 -17.5 -7.5t-16.5 -6.5q8 -27 8 -55v-378h-69v378q0 54 -29 78.5t-88 24.5 q-31 0 -80 -15q-36 -11 -95 -34v-432h-68z" />
<glyph unicode="n" horiz-adv-x="585" d="M71 0v515l68 20v-63q57 26 118 44q49 14 98 14h12q69 -3 109 -45t40 -109v-376h-69v376q0 101 -117 101q-41 0 -139 -35q-18 -7 -52 -21v-421h-68z" />
<glyph unicode="o" horiz-adv-x="569" d="M48 256q0 -125 59 -194t179 -69t177.5 68.5t57.5 194.5q0 275 -235 275q-238 0 -238 -275zM120 256q0 224 167 224q75 0 118.5 -55.5t43.5 -168.5q0 -213 -162 -213q-167 0 -167 213z" />
<glyph unicode="p" horiz-adv-x="573" d="M71 -196v711l69 20v-51q100 48 174 49q114 0 163 -67.5t49 -195.5q0 -130 -49 -201t-163 -71q-70 0 -174 33v-207zM140 81q83 -31 162 -33q45 0 75.5 17t46.5 49.5t22.5 69.5t6.5 86q0 50 -6 86t-22 65.5t-46.5 44.5t-75.5 15q-66 0 -163 -44v-356z" />
<glyph unicode="q" horiz-adv-x="573" d="M48 270q0 -130 49 -201t163 -71q70 0 174 33v-227l69 20v701h-69v-41q-100 48 -174 49q-114 0 -163 -67.5t-49 -195.5zM121 270q0 50 6 86t22 65.5t46.5 44.5t75.5 15q66 0 163 -44v-356q-83 -31 -162 -33q-45 0 -75.5 17t-46.5 49.5t-22.5 69.5t-6.5 86z" />
<glyph unicode="r" horiz-adv-x="421" d="M70 0v514l69 20v-52q51 23 116 37q50 10 97 10q20 0 39 -2v-56q-23 3 -47 3q-70 0 -150 -22q-31 -8 -55 -18v-434h-69z" />
<glyph unicode="s" horiz-adv-x="500" d="M48 396q0 70 54 104q51 32 130 32h9q91 -3 191 -26v-46q-108 21 -189 21q-129 0 -129 -79q0 -45 31.5 -66t116.5 -38q103 -21 150.5 -58t47.5 -102q0 -145 -219 -145q-91 0 -185 26v46q98 -22 176 -22q86 0 124 21.5t38 70.5q0 47 -28 66t-126 41q-103 24 -147.5 57 t-44.5 97z" />
<glyph unicode="t" horiz-adv-x="430" d="M15 464v54h126v160l69 20v-180h176v-54h-176v-322q0 -57 19 -79.5t79 -22.5q45 2 96 14v-48q-69 -18 -119 -18q-9 0 -18 1q-126 9 -126 156v319h-126z" />
<glyph unicode="u" horiz-adv-x="585" d="M70 146v367l68 20v-395q0 -93 117 -93q58 0 191 49v431h69v-525h-69v47q-130 -54 -212 -54q-73 0 -118.5 37t-45.5 116z" />
<glyph unicode="v" horiz-adv-x="524" d="M20 525h62l180 -473l180 473h62l-201 -525h-82z" />
<glyph unicode="w" horiz-adv-x="820" d="M13 525l171 -525h83l143 466l142 -466h83l170 525h-64l-147 -472l-141 472h-86l-142 -473l-148 473h-64z" />
<glyph unicode="x" horiz-adv-x="532" d="M18 0l211 262l-211 263h74l174 -217l174 217h74l-211 -263l211 -262h-74l-174 216l-174 -216h-74z" />
<glyph unicode="y" horiz-adv-x="585" d="M70 168v347l68 20v-375q0 -93 117 -93q46 0 94 15q60 20 91 31v412h69v-561q0 -77 -58 -116.5t-154 -39.5q-80 0 -173 19v44q63 -11 120 -11q106 0 151 23.5t45 101.5v81q-69 -27 -112 -38q-49 -13 -94 -13q-73 0 -118.5 37t-45.5 116z" />
<glyph unicode="z" horiz-adv-x="515" d="M57 471v54h404v-60l-338 -410h347l-22 -55h-390v67l338 404h-339z" />
<glyph unicode="{" horiz-adv-x="420" d="M51 326v53q72 6 97.5 30t25.5 83v188q0 53 26.5 80.5t75.5 27.5h101v-49h-82q-33 0 -47.5 -13.5t-14.5 -44.5v-193q0 -108 -107 -131v-5q107 -22 107 -132v-195q0 -31 14.5 -44.5t47.5 -13.5h82v-48h-101q-102 0 -102 107v188q0 58 -25.5 82t-97.5 30z" />
<glyph unicode="|" horiz-adv-x="299" d="M115 -82v871h68v-871h-68z" />
<glyph unicode="}" horiz-adv-x="420" d="M51 -33v-48h101q102 0 102 107v188q0 58 25.5 82t97.5 30v53q-72 6 -97.5 30t-25.5 83v188q0 53 -26.5 80.5t-75.5 27.5h-101v-49h82q33 0 47.5 -13.5t14.5 -44.5v-193q0 -108 107 -131v-5q-107 -22 -107 -132v-195q0 -31 -14.5 -44.5t-47.5 -13.5h-82z" />
<glyph unicode="~" horiz-adv-x="462" d="M26 350q16 43 48.5 65t70.5 22q45 0 103 -50q3 -2 11.5 -8t12.5 -8t12.5 -6.5t15 -6.5t15.5 -3.5t19 -1.5q29 1 72 55l26 -19q-19 -45 -50 -66t-63 -21q-36 1 -91 42q-49 41 -92 41q-40 0 -84 -53z" />
<glyph unicode="&#xa1;" horiz-adv-x="289" d="M108 -197h73l-12 546h-50zM109 431h69v94h-69v-94z" />
<glyph unicode="&#xa2;" horiz-adv-x="560" d="M39 264q0 252 258 263v103h42v-102q97 -4 171 -28v-43q-67 17 -161 17h-10v-426h12q94 0 167 18v-43q-66 -24 -179 -28v-104h-42v105q-136 5 -197 73.5t-61 194.5zM104 264q0 -102 42 -153.5t151 -60.5v421q-108 -9 -150.5 -60t-42.5 -147z" />
<glyph unicode="&#xa3;" horiz-adv-x="600" d="M59 0v60q51 33 81.5 88.5t30.5 119.5q0 29 -10 72h-102v53h86q-2 7 -7.5 26t-5.5 21q-16 56 -16 96q0 97 61.5 147.5t162.5 50.5q105 0 197 -37v-49q-81 29 -181 32q-174 0 -174 -130q0 -53 31 -157h228v-53h-219q11 -46 11 -80q0 -104 -94 -202h417l-22 -58h-475z" />
<glyph unicode="&#xa4;" horiz-adv-x="700" d="M33 88l111 100q-60 76 -60 175q0 92 56 167l-107 97l31 32l100 -98q74 71 181 71q109 -4 187 -75l103 102l33 -33l-112 -98q50 -69 50 -163q0 -96 -56 -171l114 -106l-29 -33l-109 111q-85 -77 -182 -72q-107 5 -175 67l-105 -105zM128 363q0 -98 64.5 -161t151.5 -63 q89 0 153.5 62.5t64.5 162.5q0 93 -62.5 158t-154.5 65t-154.5 -65t-62.5 -159z" />
<glyph unicode="&#xa5;" horiz-adv-x="700" d="M62 727h75l215 -336l205 336h75l-214 -347h209v-55h-240v-82h240v-55h-240v-188h-70v188h-246v55h246v82h-246v55h215z" />
<glyph unicode="&#xa6;" horiz-adv-x="299" d="M116 -145h67v364h-67v-364zM116 363h67v364h-67v-364z" />
<glyph unicode="&#xa7;" horiz-adv-x="505" d="M41 312q0 61 27 97q18 23 36 34q-2 3 -10 8q-48 43 -48 120q0 86 56 126t141 37q91 -3 196 -31v-55q-114 25 -194 25q-129 0 -129 -94q0 -55 31 -80t118 -48q105 -23 153.5 -67t48.5 -122q0 -59 -24 -96q-12 -18 -34 -37l3 -3q50 -42 50 -123q0 -174 -224 -174 q-36 0 -94 9.5t-95 21.5v55q102 -26 180 -26q87 0 125 25.5t38 84.5q0 60 -28.5 83.5t-126.5 47.5q-104 24 -150 64.5t-46 117.5zM111 319q0 -55 31 -79.5t118 -47.5q52 -11 85 -26q20 11 28 19q24 27 24 73q0 60 -28.5 83.5t-126.5 47.5q-38 10 -65 18q-20 -6 -36 -17 q-30 -22 -30 -71z" />
<glyph unicode="&#xa8;" horiz-adv-x="540" d="M164 795v94h69v-94h-69zM327 795v94h69v-94h-69z" />
<glyph unicode="&#xa9;" horiz-adv-x="800" d="M32 360q0 154 104.5 260.5t261.5 106.5q155 0 261 -106.5t106 -260.5t-106 -261t-261 -107q-157 0 -261.5 107t-104.5 261zM67 360q0 -147 92.5 -240.5t238.5 -93.5q144 0 238 94t94 240t-93.5 239.5t-238.5 93.5q-146 0 -238.5 -93t-92.5 -240zM230 362q0 91 43.5 145.5 t121.5 54.5q60 0 124 -19v-37q-55 11 -103 11q-74 0 -104.5 -38t-30.5 -117q0 -85 30 -122t106 -37q54 0 108 14v-38q-60 -20 -132 -20q-77 0 -120 54.5t-43 148.5z" />
<glyph unicode="&#xaa;" horiz-adv-x="500" d="M91 485q0 75 81 105q40 15 158 15v17q0 40 -29.5 54t-87.5 14q-51 0 -88 -9v38q48 13 120 13q67 0 105.5 -26.5t38.5 -79.5v-245h-56v30q-69 -33 -136 -33q-49 0 -77.5 27t-28.5 80zM148 489q0 -70 76 -70q58 0 106 30v118q-98 -2 -124 -11q-15 -5 -21.5 -8.5t-17 -11 t-15 -19t-4.5 -28.5z" />
<glyph unicode="&#xab;" horiz-adv-x="499" d="M55 257l154 223h52l-129 -223l129 -222h-52zM235 257l154 223h52l-129 -223l129 -222h-52z" />
<glyph unicode="&#xac;" horiz-adv-x="700" d="M51 438v57h595v-268h-59v211h-536z" />
<glyph unicode="&#xad;" horiz-adv-x="500" d="M57 341v55h386v-55h-386z" />
<glyph unicode="&#xae;" horiz-adv-x="800" d="M32 360q0 154 104.5 260.5t261.5 106.5q155 0 261 -106.5t106 -260.5t-106 -261t-261 -107q-157 0 -261.5 107t-104.5 261zM67 360q0 -147 92.5 -240.5t238.5 -93.5q144 0 238 94t94 240t-93.5 239.5t-238.5 93.5q-146 0 -238.5 -93t-92.5 -240zM269 164v396h146 q139 0 139 -122q0 -94 -82 -123l80 -151h-50l-74 142h-111v-142h-48zM317 349h106q87 0 87 89q0 79 -97 79h-96v-168z" />
<glyph unicode="&#xaf;" horiz-adv-x="500" d="M0 792v55h500v-55h-500z" />
<glyph unicode="&#xb0;" horiz-adv-x="446" d="M66 590q0 -157 157 -157q158 0 158 157q0 158 -158 158q-157 0 -157 -158zM120 591q0 106 103 106q106 0 106 -106q0 -107 -106 -107q-50 0 -76.5 27.5t-26.5 79.5z" />
<glyph unicode="&#xb1;" horiz-adv-x="530" d="M49 21v55h432v-55h-432zM49 342v55h183v192h67v-192h182v-55h-182v-194h-67v194h-183z" />
<glyph unicode="&#xb2;" horiz-adv-x="300" d="M25 386v48l94 88q87 80 87 149q0 37 -18 53.5t-63 16.5q-41 0 -97 -14v45q53 20 105 20q70 0 103 -28.5t33 -88.5q0 -53 -32 -97.5t-90 -97.5l-45 -44h181l-17 -50h-241z" />
<glyph unicode="&#xb3;" horiz-adv-x="310" d="M20 399v45q57 -12 119 -12q42 0 60.5 15t20.5 49q0 43 -27.5 58t-81.5 15h-24v50h24q94 0 94 70q0 27 -15 39t-51 13q-51 0 -105 -14v45q56 20 105 20q67 0 98 -24t31 -77q0 -57 -67 -91q83 -24 83 -104q0 -115 -138 -115q-61 0 -126 18z" />
<glyph unicode="&#xb4;" horiz-adv-x="280" d="M60 795h55l105 127h-98z" />
<glyph unicode="&#xb5;" horiz-adv-x="585" d="M70 -190v705l68 20v-397q0 -93 117 -93q58 0 191 49v431h69v-525h-69v47q-130 -54 -212 -54q-31 0 -63 8q-18 5 -33 12v-203h-68z" />
<glyph unicode="&#xb6;" horiz-adv-x="630" d="M53 525q0 -92 48 -143t160 -59v-323h69v662h131v-662h69v727h-258q-119 0 -169 -53.5t-50 -148.5z" />
<glyph unicode="&#xb7;" horiz-adv-x="314" d="M127 275v95h69v-95h-69z" />
<glyph unicode="&#xb8;" horiz-adv-x="317" d="M76 -140q38 -7 79 -7q48 0 48 33q0 27 -36 27h-77l28 110h51l-11 -67h20q77 0 77 -70q0 -81 -92 -81q-47 0 -87 10v45z" />
<glyph unicode="&#xb9;" horiz-adv-x="226" d="M27 707v45l142 34v-400h-59v337z" />
<glyph unicode="&#xba;" horiz-adv-x="500" d="M87 547q0 -180 161 -180q158 0 158 180q0 186 -158 186q-161 0 -161 -186zM150 547q0 143 98 143q94 0 94 -143q0 -136 -94 -136q-50 0 -74 32.5t-24 103.5z" />
<glyph unicode="&#xbb;" horiz-adv-x="499" d="M55 35h52l154 222l-154 223h-52l129 -223zM235 35h52l154 222l-154 223h-52l129 -223z" />
<glyph unicode="&#xbc;" horiz-adv-x="900" d="M37 645v39l135 41v-433h-57v373zM136 0l498 727h57l-497 -727h-58zM494 94v46l189 288h66v-289h84l-20 -45h-64v-93h-49v93h-206zM548 139h152v230z" />
<glyph unicode="&#xbd;" horiz-adv-x="900" d="M38 646v39l136 40v-433h-57v373zM112 0l498 727h57l-497 -727h-58zM581 0v39l103 100q50 48 74.5 84.5t24.5 75.5q0 82 -87 82q-56 0 -104 -25v42q48 29 114 29q65 0 101 -32.5t36 -90.5q0 -50 -28.5 -92t-88.5 -96l-77 -70v-1h213l-20 -45h-261z" />
<glyph unicode="&#xbe;" horiz-adv-x="900" d="M34 311v44q51 -23 105 -23q108 0 108 82q0 77 -98 77h-44v43h38q43 0 67.5 19t24.5 54q0 66 -91 66q-53 0 -95 -18v42q48 22 110 22q61 0 96.5 -27t35.5 -76q0 -74 -77 -98v-2q93 -17 93 -106q0 -58 -41.5 -90.5t-113.5 -32.5t-118 24zM188 0l498 727h57l-497 -727h-58z M526 94v46l189 288h66v-289h84l-20 -45h-64v-93h-49v93h-206zM580 139h152v230z" />
<glyph unicode="&#xbf;" horiz-adv-x="470" d="M48 -35q0 72 23.5 119t82.5 99q11 10 29.5 25.5t25.5 22.5t16.5 19t13 25t3.5 30v30h53v-40q0 -15 -2 -27.5t-9 -25t-10.5 -19.5t-17 -21t-18 -18t-24 -21t-24.5 -21q-25 -24 -39.5 -41t-26.5 -46t-12 -62q0 -73 35.5 -104.5t119.5 -31.5q68 0 154 22v-45 q-101 -32 -177 -32q-87 0 -141.5 40t-54.5 123zM234 431v94h69v-94h-69z" />
<glyph unicode="&#xc0;" horiz-adv-x="651" d="M27 0l252 727h94l252 -727h-68l-68 197h-327l-67 -197h-68zM181 251h290l-145 423zM241 922h93l62 -127h-50z" />
<glyph unicode="&#xc1;" horiz-adv-x="651" d="M27 0l252 727h94l252 -727h-68l-68 197h-327l-67 -197h-68zM181 251h290l-145 423zM256 795h50l105 127h-93z" />
<glyph unicode="&#xc2;" horiz-adv-x="651" d="M27 0l252 727h94l252 -727h-68l-68 197h-327l-67 -197h-68zM181 251h290l-145 423zM191 795l102 127h67l106 -127h-65l-75 94l-70 -94h-65z" />
<glyph unicode="&#xc3;" horiz-adv-x="651" d="M27 0l252 727h94l252 -727h-68l-68 197h-327l-67 -197h-68zM173 795q4 41 26 69t65 28q35 0 73 -30q27 -22 51 -22q19 0 26.5 11.5t10.5 40.5h51q-4 -41 -26 -69t-65 -28q-36 0 -73 29q-29 23 -51 23q-19 0 -26.5 -11.5t-10.5 -40.5h-51zM181 251h290l-145 423z" />
<glyph unicode="&#xc4;" horiz-adv-x="651" d="M27 0l252 727h94l252 -727h-68l-68 197h-327l-67 -197h-68zM181 251h290l-145 423zM210 795v94h69v-94h-69zM373 795v94h69v-94h-69z" />
<glyph unicode="&#xc5;" horiz-adv-x="651" d="M27 0l252 727h94l252 -727h-68l-68 197h-327l-67 -197h-68zM181 251h290l-145 423zM249 849q0 33 22 53t55 20q34 0 55.5 -20t21.5 -53q0 -31 -21.5 -50.5t-55.5 -19.5q-33 0 -55 20t-22 50zM291 849q0 -14 10 -22.5t25 -8.5t24.5 8.5t9.5 22.5q0 32 -34 32 q-35 0 -35 -32z" />
<glyph unicode="&#xc6;" horiz-adv-x="900" d="M38 0l353 727h466v-55h-359v-276h342l-20 -56h-322v-285h359v-55h-424v200h-229l-97 -200h-69zM231 254h202v414z" />
<glyph unicode="&#xc7;" horiz-adv-x="581" d="M57 363q0 371 279 371q109 0 205 -30v-46q-98 20 -186 20q-118 0 -172 -80t-54 -235q0 -312 227 -312q70 0 185 22v-48q-107 -30 -205 -30h-1l-5 -39h20q77 0 77 -70q0 -81 -92 -81q-47 0 -87 10v45q38 -7 79 -7q48 0 48 33q0 27 -36 27h-77l21 86q-41 6 -75 23 q-151 80 -151 341z" />
<glyph unicode="&#xc8;" horiz-adv-x="601" d="M76 0v727h476v-55h-407v-276h390l-20 -56h-370v-285h407v-55h-476zM206 922h93l62 -127h-50z" />
<glyph unicode="&#xc9;" horiz-adv-x="601" d="M76 0v727h476v-55h-407v-276h390l-20 -56h-370v-285h407v-55h-476zM256 795h50l105 127h-93z" />
<glyph unicode="&#xca;" horiz-adv-x="601" d="M76 0v727h476v-55h-407v-276h390l-20 -56h-370v-285h407v-55h-476zM191 795l102 127h67l106 -127h-65l-75 94l-70 -94h-65z" />
<glyph unicode="&#xcb;" horiz-adv-x="601" d="M76 0v727h476v-55h-407v-276h390l-20 -56h-370v-285h407v-55h-476zM210 795v94h69v-94h-69zM373 795v94h69v-94h-69z" />
<glyph unicode="&#xcc;" horiz-adv-x="242" d="M15 922h93l62 -127h-50zM87 0v727h69v-727h-69z" />
<glyph unicode="&#xcd;" horiz-adv-x="242" d="M77 795h50l105 127h-93zM87 0v727h69v-727h-69z" />
<glyph unicode="&#xce;" horiz-adv-x="242" d="M-16 795l102 127h67l106 -127h-65l-75 94l-70 -94h-65zM87 0v727h69v-727h-69z" />
<glyph unicode="&#xcf;" horiz-adv-x="303" d="M36 795v94h69v-94h-69zM117 0v727h69v-727h-69zM199 795v94h69v-94h-69z" />
<glyph unicode="&#xd0;" horiz-adv-x="794" d="M40 342v55h133v330h255q66 0 115 -16t80.5 -45t51 -73.5t27 -96t7.5 -119.5q0 -89 -12 -153.5t-42.5 -117.5t-87 -79.5t-139.5 -26.5h-255v342h-133zM241 55h176q68 0 113 24.5t67.5 71.5t31 100t8.5 126q0 72 -8.5 121.5t-31 91t-67.5 62t-113 20.5h-176v-275h174 l-21 -55h-153v-287z" />
<glyph unicode="&#xd1;" horiz-adv-x="702" d="M78 0v727h103l379 -671v671h64v-727h-103l-380 668v-668h-63zM214 795q4 41 26 69t65 28q35 0 73 -30q28 -22 51 -22q19 0 26.5 11.5t10.5 40.5h51q-4 -41 -26 -69t-65 -28q-36 0 -73 29q-29 23 -51 23q-19 0 -26.5 -11.5t-10.5 -40.5h-51z" />
<glyph unicode="&#xd2;" horiz-adv-x="687" d="M57 359q0 190 65 282.5t220 92.5t221 -93t66 -282t-65.5 -276.5t-221.5 -87.5q-154 0 -219.5 88.5t-65.5 275.5zM129 359q0 -163 48 -236.5t165 -73.5q119 0 167.5 72.5t48.5 237.5q0 163 -49.5 242t-166.5 79q-116 0 -164.5 -78.5t-48.5 -242.5zM241 922h93l62 -127h-50 z" />
<glyph unicode="&#xd3;" horiz-adv-x="687" d="M57 359q0 190 65 282.5t220 92.5t221 -93t66 -282t-65.5 -276.5t-221.5 -87.5q-154 0 -219.5 88.5t-65.5 275.5zM129 359q0 -163 48 -236.5t165 -73.5q119 0 167.5 72.5t48.5 237.5q0 163 -49.5 242t-166.5 79q-116 0 -164.5 -78.5t-48.5 -242.5zM276 795h50l105 127h-93 z" />
<glyph unicode="&#xd4;" horiz-adv-x="687" d="M57 359q0 190 65 282.5t220 92.5t221 -93t66 -282t-65.5 -276.5t-221.5 -87.5q-154 0 -219.5 88.5t-65.5 275.5zM129 359q0 -163 48 -236.5t165 -73.5q119 0 167.5 72.5t48.5 237.5q0 163 -49.5 242t-166.5 79q-116 0 -164.5 -78.5t-48.5 -242.5zM207 795l102 127h67 l106 -127h-65l-75 94l-70 -94h-65z" />
<glyph unicode="&#xd5;" horiz-adv-x="687" d="M57 359q0 190 65 282.5t220 92.5t221 -93t66 -282t-65.5 -276.5t-221.5 -87.5q-154 0 -219.5 88.5t-65.5 275.5zM129 359q0 -163 48 -236.5t165 -73.5q119 0 167.5 72.5t48.5 237.5q0 163 -49.5 242t-166.5 79q-116 0 -164.5 -78.5t-48.5 -242.5zM189 795q4 41 26 69 t65 28q35 0 73 -30q28 -22 51 -22q19 0 26.5 11.5t10.5 40.5h51q-4 -41 -26 -69t-65 -28q-36 0 -73 29q-29 23 -51 23q-19 0 -26.5 -11.5t-10.5 -40.5h-51z" />
<glyph unicode="&#xd6;" horiz-adv-x="687" d="M57 359q0 190 65 282.5t220 92.5t221 -93t66 -282t-65.5 -276.5t-221.5 -87.5q-154 0 -219.5 88.5t-65.5 275.5zM129 359q0 -163 48 -236.5t165 -73.5q119 0 167.5 72.5t48.5 237.5q0 163 -49.5 242t-166.5 79q-116 0 -164.5 -78.5t-48.5 -242.5zM226 795v94h69v-94h-69z M389 795v94h69v-94h-69z" />
<glyph unicode="&#xd7;" horiz-adv-x="530" d="M43 180l41 -39l181 185l181 -184l40 39l-182 184l182 185l-40 39l-181 -184l-181 185l-40 -39l182 -185z" />
<glyph unicode="&#xd8;" horiz-adv-x="687" d="M57 359q0 190 65 282.5t220 92.5q81 0 135 -25q23 -11 42 -24l50 87h68l-75 -129l3 -6q64 -90 64 -278q0 -189 -65.5 -276.5t-221.5 -87.5q-77 0 -134 23q-2 0 -4.5 1t-3.5 2l-56 -96h-65l73 126q-21 19 -32 35q-63 87 -63 273zM129 359q0 -161 46 -234q3 -5 11 -15 l300 518q-18 18 -42 31q-40 21 -102 21q-116 0 -164.5 -78.5t-48.5 -242.5zM230 73q5 -4 11 -5q39 -19 101 -19q119 0 167.5 72.5t48.5 237.5q0 75 -11 138q-7 40 -25 78z" />
<glyph unicode="&#xd9;" horiz-adv-x="676" d="M76 225v502h69v-501q0 -89 51.5 -132t141.5 -43q193 0 193 175v501h69v-502q0 -120 -66 -175t-196 -55q-129 0 -195.5 55t-66.5 175zM240 922h93l62 -127h-50z" />
<glyph unicode="&#xda;" horiz-adv-x="676" d="M76 225v502h69v-501q0 -89 51.5 -132t141.5 -43q193 0 193 175v501h69v-502q0 -120 -66 -175t-196 -55q-129 0 -195.5 55t-66.5 175zM276 795h50l105 127h-93z" />
<glyph unicode="&#xdb;" horiz-adv-x="676" d="M76 225v502h69v-501q0 -89 51.5 -132t141.5 -43q193 0 193 175v501h69v-502q0 -120 -66 -175t-196 -55q-129 0 -195.5 55t-66.5 175zM207 795l102 127h67l106 -127h-65l-75 94l-70 -94h-65z" />
<glyph unicode="&#xdc;" horiz-adv-x="676" d="M76 225v502h69v-501q0 -89 51.5 -132t141.5 -43q193 0 193 175v501h69v-502q0 -120 -66 -175t-196 -55q-129 0 -195.5 55t-66.5 175zM226 795v94h69v-94h-69zM389 795v94h69v-94h-69z" />
<glyph unicode="&#xdd;" horiz-adv-x="642" d="M26 727h75l221 -346l220 346h75l-260 -405v-322h-70v322zM266 795h50l105 127h-93z" />
<glyph unicode="&#xde;" horiz-adv-x="642" d="M87 0v727h69v-107h165q127 0 196.5 -58.5t69.5 -180.5q0 -123 -71 -188.5t-195 -65.5h-165v-127h-69zM156 187h177q86 0 135 48t49 146q0 99 -47.5 139t-136.5 40h-177v-373z" />
<glyph unicode="&#xdf;" horiz-adv-x="620" d="M71 0v527q0 105 62 155.5t174 50.5q93 0 151 -38t58 -106q0 -14 -2.5 -26.5t-9 -24.5t-10.5 -19.5t-15.5 -19.5t-15 -15.5t-17 -15.5t-14.5 -13q-3 -3 -14 -13t-14 -13t-11.5 -12t-11.5 -14t-7.5 -13.5t-6 -16.5t-1.5 -17q0 -28 12.5 -43t38.5 -30q12 -7 36 -19.5 t33 -17.5t27 -15.5t24 -16t17.5 -15.5t15.5 -17.5t9.5 -18.5t7 -22.5t1.5 -25.5q0 -56 -53 -88t-131 -32q-76 0 -142 27v49q90 -29 147 -25q115 8 115 74q0 17 -15.5 34t-32.5 26.5t-47 24.5t-42 22h1q-48 27 -69 57.5t-21 74.5q0 67 69 124q7 7 26 22.5t28 24t17.5 23.5 t8.5 30q0 50 -38.5 75t-101.5 25q-167 0 -167 -165v-518h-69z" />
<glyph unicode="&#xe0;" d="M47 147q0 59 26.5 98t91.5 60q70 23 255 23v27q0 78 -44.5 101t-151.5 23q-66 -2 -130 -13v46q93 19 183 19q96 0 154 -39t58 -116v-376h-65v54q-109 -61 -223 -61q-70 0 -112 40t-42 114zM120 154q0 -111 126 -111q86 0 174 57v184q-138 0 -213 -21q-44 -13 -65.5 -38.5 t-21.5 -70.5zM181 727h93l62 -127h-50z" />
<glyph unicode="&#xe1;" d="M47 147q0 59 26.5 98t91.5 60q70 23 255 23v27q0 78 -44.5 101t-151.5 23q-66 -2 -130 -13v46q93 19 183 19q96 0 154 -39t58 -116v-376h-65v54q-109 -61 -223 -61q-70 0 -112 40t-42 114zM120 154q0 -111 126 -111q86 0 174 57v184q-138 0 -213 -21q-44 -13 -65.5 -38.5 t-21.5 -70.5zM236 600h50l105 127h-93z" />
<glyph unicode="&#xe2;" d="M47 147q0 59 26.5 98t91.5 60q70 23 255 23v27q0 78 -44.5 101t-151.5 23q-66 -2 -130 -13v46q93 19 183 19q96 0 154 -39t58 -116v-376h-65v54q-109 -61 -223 -61q-70 0 -112 40t-42 114zM120 154q0 -111 126 -111q86 0 174 57v184q-138 0 -213 -21q-44 -13 -65.5 -38.5 t-21.5 -70.5zM145 600l102 127h67l106 -127h-65l-75 94l-70 -94h-65z" />
<glyph unicode="&#xe3;" d="M47 147q0 59 26.5 98t91.5 60q70 23 255 23v27q0 78 -44.5 101t-151.5 23q-66 -2 -130 -13v46q93 19 183 19q96 0 154 -39t58 -116v-376h-65v54q-109 -61 -223 -61q-70 0 -112 40t-42 114zM120 154q0 -111 126 -111q86 0 174 57v184q-138 0 -213 -21q-44 -13 -65.5 -38.5 t-21.5 -70.5zM123 600q4 41 26 69t65 28q35 0 73 -30q27 -22 51 -22q19 0 26.5 11.5t10.5 40.5h51q-4 -41 -26 -69t-65 -28q-36 0 -73 29q-29 23 -51 23q-19 0 -26.5 -11.5t-10.5 -40.5h-51z" />
<glyph unicode="&#xe4;" d="M47 147q0 59 26.5 98t91.5 60q70 23 255 23v27q0 78 -44.5 101t-151.5 23q-66 -2 -130 -13v46q93 19 183 19q96 0 154 -39t58 -116v-376h-65v54q-109 -61 -223 -61q-70 0 -112 40t-42 114zM120 154q0 -111 126 -111q86 0 174 57v184q-138 0 -213 -21q-44 -13 -65.5 -38.5 t-21.5 -70.5zM165 633v94h69v-94h-69zM328 633v94h69v-94h-69z" />
<glyph unicode="&#xe5;" d="M47 147q0 59 26.5 98t91.5 60q70 23 255 23v27q0 78 -44.5 101t-151.5 23q-66 -2 -130 -13v46q93 19 183 19q96 0 154 -39t58 -116v-376h-65v54q-109 -61 -223 -61q-70 0 -112 40t-42 114zM120 154q0 -111 126 -111q86 0 174 57v184q-138 0 -213 -21q-44 -13 -65.5 -38.5 t-21.5 -70.5zM203 664q0 33 22 53t55 20q34 0 55.5 -20t21.5 -53q0 -31 -21.5 -50.5t-55.5 -19.5q-33 0 -55 20t-22 50zM245 664q0 -14 10 -22.5t25 -8.5t24.5 8.5t9.5 22.5q0 32 -34 32q-35 0 -35 -32z" />
<glyph unicode="&#xe6;" horiz-adv-x="900" d="M36 147q0 59 26.5 98t91.5 60q70 23 245 23v27q0 78 -40.5 101t-145.5 23q-66 -2 -130 -13v46q93 19 183 19q93 0 146 -38q22 -16 35 -38q3 5 11 13q56 63 169 63q226 0 226 -255v-23q0 -17 -1 -24h-383q4 -100 36.5 -142t125.5 -42q107 0 200 26v-46q-96 -32 -210 -32 q-120 0 -173 65q-8 10 -11 15q-24 -17 -49 -31q-92 -49 -198 -49q-70 0 -112 40t-42 114zM109 154q0 -111 126 -111q43 0 95 20q47 20 88 49q-2 7 -7 28q-11 52 -11 117v21l-1 6q-128 0 -203 -21q-44 -13 -65.5 -38.5t-21.5 -70.5zM469 277h318q-2 107 -38.5 154.5 t-121.5 47.5q-87 0 -119.5 -46t-38.5 -156z" />
<glyph unicode="&#xe7;" horiz-adv-x="477" d="M47 264q0 125 57 196t171 71q75 0 159 -28v-43q-67 17 -131 17q-102 0 -144 -54t-42 -159q0 -112 42 -165.5t146 -53.5q64 0 137 18v-43q-78 -28 -168 -28l-5 -36h20q77 0 77 -70q0 -81 -92 -81q-47 0 -87 10v45q38 -7 79 -7q48 0 48 33q0 27 -36 27h-77l20 84 q-31 5 -49 14q-125 57 -125 253z" />
<glyph unicode="&#xe8;" d="M48 257q0 274 237 274q226 0 226 -255q0 -34 -1 -47h-393q4 -97 41 -140.5t131 -43.5q107 0 200 26v-46q-96 -32 -210 -32q-123 0 -177 64t-54 200zM117 277h328q-2 107 -38.5 154.5t-121.5 47.5q-88 0 -125 -47t-43 -155zM181 727h93l62 -127h-50z" />
<glyph unicode="&#xe9;" d="M48 257q0 274 237 274q226 0 226 -255q0 -34 -1 -47h-393q4 -97 41 -140.5t131 -43.5q107 0 200 26v-46q-96 -32 -210 -32q-123 0 -177 64t-54 200zM117 277h328q-2 107 -38.5 154.5t-121.5 47.5q-88 0 -125 -47t-43 -155zM236 600h50l105 127h-93z" />
<glyph unicode="&#xea;" d="M48 257q0 274 237 274q226 0 226 -255q0 -34 -1 -47h-393q4 -97 41 -140.5t131 -43.5q107 0 200 26v-46q-96 -32 -210 -32q-123 0 -177 64t-54 200zM117 277h328q-2 107 -38.5 154.5t-121.5 47.5q-88 0 -125 -47t-43 -155zM150 600l102 127h67l106 -127h-65l-75 94 l-70 -94h-65z" />
<glyph unicode="&#xeb;" d="M48 257q0 274 237 274q226 0 226 -255q0 -34 -1 -47h-393q4 -97 41 -140.5t131 -43.5q107 0 200 26v-46q-96 -32 -210 -32q-123 0 -177 64t-54 200zM117 277h328q-2 107 -38.5 154.5t-121.5 47.5q-88 0 -125 -47t-43 -155zM169 633v94h69v-94h-69zM332 633v94h69v-94h-69 z" />
<glyph unicode="&#xec;" horiz-adv-x="242" d="M6 727h93l62 -127h-50zM82 0v525h69v-525h-69z" />
<glyph unicode="&#xed;" horiz-adv-x="242" d="M72 600h50l105 127h-93zM82 0v525h69v-525h-69z" />
<glyph unicode="&#xee;" horiz-adv-x="242" d="M-20 600l102 127h67l106 -127h-65l-75 94l-70 -94h-65zM82 0v525h69v-525h-69z" />
<glyph unicode="&#xef;" horiz-adv-x="258" d="M9 633v94h69v-94h-69zM91 0v525h69v-525h-69zM172 633v94h69v-94h-69z" />
<glyph unicode="&#xf0;" horiz-adv-x="548" d="M36 256q0 -125 59 -194t179 -69t177.5 68.5t57.5 194.5q0 18 -2 48q-5 72 -25 137q-23 72 -61 131q-25 38 -54 71l81 39l-19 36l-90 -44q-22 23 -57 53h-90q47 -35 90 -81l-97 -47l18 -35l106 51q38 -47 66 -101q-45 17 -101 17q-238 0 -238 -275zM108 256q0 224 167 224 q75 0 118.5 -55.5t43.5 -168.5q0 -213 -162 -213q-167 0 -167 213z" />
<glyph unicode="&#xf1;" horiz-adv-x="585" d="M71 0v515l68 20v-63q140 62 228 58q69 -3 109 -45t40 -109v-376h-69v376q0 101 -117 101q-28 0 -84 -16t-107 -40v-421h-68zM143 600q4 41 26 69t65 28q35 0 73 -30q27 -22 51 -22q19 0 26.5 11.5t10.5 40.5h51q-4 -41 -26 -69t-65 -28q-36 0 -73 29q-29 23 -51 23 q-19 0 -26.5 -11.5t-10.5 -40.5h-51z" />
<glyph unicode="&#xf2;" horiz-adv-x="569" d="M48 256q0 -125 59 -194t179 -69t177.5 68.5t57.5 194.5q0 275 -235 275q-238 0 -238 -275zM120 256q0 224 167 224q75 0 118.5 -55.5t43.5 -168.5q0 -213 -162 -213q-167 0 -167 213zM181 727h93l62 -127h-50z" />
<glyph unicode="&#xf3;" horiz-adv-x="569" d="M48 256q0 -125 59 -194t179 -69t177.5 68.5t57.5 194.5q0 275 -235 275q-238 0 -238 -275zM120 256q0 224 167 224q75 0 118.5 -55.5t43.5 -168.5q0 -213 -162 -213q-167 0 -167 213zM231 600h50l105 127h-93z" />
<glyph unicode="&#xf4;" horiz-adv-x="569" d="M48 256q0 -125 59 -194t179 -69t177.5 68.5t57.5 194.5q0 275 -235 275q-238 0 -238 -275zM120 256q0 224 167 224q75 0 118.5 -55.5t43.5 -168.5q0 -213 -162 -213q-167 0 -167 213zM150 600l102 127h67l106 -127h-65l-75 94l-70 -94h-65z" />
<glyph unicode="&#xf5;" horiz-adv-x="569" d="M48 256q0 -125 59 -194t179 -69t177.5 68.5t57.5 194.5q0 275 -235 275q-238 0 -238 -275zM120 256q0 224 167 224q75 0 118.5 -55.5t43.5 -168.5q0 -213 -162 -213q-167 0 -167 213zM133 600q4 41 26 69t65 28q35 0 73 -30q27 -22 51 -22q19 0 26.5 11.5t10.5 40.5h51 q-4 -41 -26 -69t-65 -28q-36 0 -73 29q-29 23 -51 23q-19 0 -26.5 -11.5t-10.5 -40.5h-51z" />
<glyph unicode="&#xf6;" horiz-adv-x="569" d="M48 256q0 -125 59 -194t179 -69t177.5 68.5t57.5 194.5q0 275 -235 275q-238 0 -238 -275zM120 256q0 224 167 224q75 0 118.5 -55.5t43.5 -168.5q0 -213 -162 -213q-167 0 -167 213zM169 633v94h69v-94h-69zM332 633v94h69v-94h-69z" />
<glyph unicode="&#xf7;" horiz-adv-x="530" d="M38 344h453v53h-453v-53zM229 141v94h69v-94h-69zM229 510v94h69v-94h-69z" />
<glyph unicode="&#xf8;" horiz-adv-x="580" d="M4 -35h65l65 78q20 -18 54 -32q45 -18 107 -18q120 0 177.5 68.5t57.5 194.5q0 124 -53 197l100 120h-68l-69 -83q-55 41 -145 41q-238 0 -238 -275q0 -58 14 -109q11 -40 29 -66zM129 256q0 224 167 224q38 0 65 -13q21 -9 38 -26l-252 -304q-4 9 -7 20q-11 42 -11 99z M174 91l256 307q7 -14 16 -41q12 -42 12 -101q0 -213 -162 -213q-37 0 -70 11q-30 12 -52 37z" />
<glyph unicode="&#xf9;" horiz-adv-x="585" d="M70 146v369l68 20v-397q0 -93 117 -93q58 0 191 49v431h69v-525h-69v47q-130 -54 -212 -54q-73 0 -118.5 37t-45.5 116zM184 727h93l62 -127h-50z" />
<glyph unicode="&#xfa;" horiz-adv-x="585" d="M70 146v369l68 20v-397q0 -93 117 -93q58 0 191 49v431h69v-525h-69v47q-130 -54 -212 -54q-73 0 -118.5 37t-45.5 116zM241 600h50l105 127h-93z" />
<glyph unicode="&#xfb;" horiz-adv-x="585" d="M70 146v369l68 20v-397q0 -93 117 -93q58 0 191 49v431h69v-525h-69v47q-130 -54 -212 -54q-73 0 -118.5 37t-45.5 116zM163 600l102 127h67l106 -127h-65l-75 94l-70 -94h-65z" />
<glyph unicode="&#xfc;" horiz-adv-x="585" d="M70 146v369l68 20v-397q0 -93 117 -93q58 0 191 49v431h69v-525h-69v47q-130 -54 -212 -54q-73 0 -118.5 37t-45.5 116zM183 633v94h69v-94h-69zM346 633v94h69v-94h-69z" />
<glyph unicode="&#xfd;" horiz-adv-x="585" d="M70 168v347l68 20v-375q0 -93 117 -93q57 0 185 46v412h69v-561q0 -77 -58 -116.5t-154 -39.5q-80 0 -173 19v44q63 -11 120 -11q106 0 151 23.5t45 101.5v81q-127 -51 -206 -51q-73 0 -118.5 37t-45.5 116zM241 600h50l105 127h-93z" />
<glyph unicode="&#xfe;" horiz-adv-x="560" d="M71 -196v927l69 20v-267q100 48 174 49q114 0 163 -67.5t49 -195.5q0 -130 -49 -201t-163 -71q-70 0 -174 33v-207zM140 81q83 -31 162 -33q45 0 75.5 17t46.5 49.5t22.5 69.5t6.5 86q0 50 -6 86t-22 65.5t-46.5 44.5t-75.5 15q-66 0 -163 -44v-356z" />
<glyph unicode="&#xff;" horiz-adv-x="585" d="M70 168v347l68 20v-375q0 -93 117 -93q57 0 185 46v412h69v-561q0 -77 -58 -116.5t-154 -39.5q-80 0 -173 19v44q63 -11 120 -11q106 0 151 23.5t45 101.5v81q-127 -51 -206 -51q-73 0 -118.5 37t-45.5 116zM182 633v94h69v-94h-69zM345 633v94h69v-94h-69z" />
<glyph unicode="&#x152;" horiz-adv-x="990" d="M51 359q0 190 65 282.5t220 92.5q148 0 217 -89v82h389v-55h-320v-276h303l-20 -56h-283v-285h320v-55h-389v77q-67 -82 -217 -82q-154 0 -219.5 88.5t-65.5 275.5zM123 359q0 -163 48 -236.5t165 -73.5q119 0 167.5 72.5t48.5 237.5q0 163 -49.5 242t-166.5 79 q-116 0 -164.5 -78.5t-48.5 -242.5z" />
<glyph unicode="&#x153;" horiz-adv-x="900" d="M26 256q0 -125 59 -194t179 -69q118 0 175 71q3 3 8 9.5t7 10.5q7 -13 17 -26q54 -65 175 -65q114 0 210 32v46q-93 -26 -200 -26q-71 0 -107 25t-48 77q-9 36 -10 75v7h385q2 26 2 47q0 255 -226 255q-115 0 -171 -63q-16 -20 -25 -36q-10 18 -17 26q-56 73 -175 73 q-238 0 -238 -275zM98 256q0 224 167 224q71 0 113 -53q40 -49 43 -154v-17q0 -213 -156 -213q-167 0 -167 213zM491 285q3 45 11 82q14 58 49 85t101 27q85 0 121.5 -47.5t38.5 -154.5h-320q-1 3 -1 8z" />
<glyph unicode="&#x178;" horiz-adv-x="642" d="M26 727h75l221 -346l220 346h75l-260 -405v-322h-70v322zM210 795v94h69v-94h-69zM373 795v94h69v-94h-69z" />
<glyph unicode="&#x2dc;" horiz-adv-x="500" d="M93 795q4 41 26 69t65 28q35 0 73 -30q27 -22 51 -22q19 0 26.5 11.5t10.5 40.5h51q-4 -41 -26 -69t-65 -28q-36 0 -73 29q-29 23 -51 23q-19 0 -26.5 -11.5t-10.5 -40.5h-51z" />
<glyph unicode="&#x2000;" horiz-adv-x="461" vert-adv-y="0" />
<glyph unicode="&#x2001;" horiz-adv-x="922" vert-adv-y="0" />
<glyph unicode="&#x2002;" horiz-adv-x="461" vert-adv-y="0" />
<glyph unicode="&#x2003;" horiz-adv-x="922" vert-adv-y="0" />
<glyph unicode="&#x2004;" horiz-adv-x="307" vert-adv-y="0" />
<glyph unicode="&#x2005;" horiz-adv-x="230" vert-adv-y="0" />
<glyph unicode="&#x2006;" horiz-adv-x="153" vert-adv-y="0" />
<glyph unicode="&#x2007;" horiz-adv-x="153" vert-adv-y="0" />
<glyph unicode="&#x2008;" horiz-adv-x="115" vert-adv-y="0" />
<glyph unicode="&#x2009;" horiz-adv-x="184" vert-adv-y="0" />
<glyph unicode="&#x200a;" horiz-adv-x="51" vert-adv-y="0" />
<glyph unicode="&#x2010;" horiz-adv-x="530" d="M75 343v55h380v-55h-380z" />
<glyph unicode="&#x2011;" horiz-adv-x="530" d="M75 343v55h380v-55h-380z" />
<glyph unicode="&#x2012;" horiz-adv-x="530" d="M75 343v55h380v-55h-380z" />
<glyph unicode="&#x2013;" horiz-adv-x="556" d="M0 237v55h556v-55h-556z" />
<glyph unicode="&#x2014;" horiz-adv-x="900" d="M0 237v55h900v-55h-900z" />
<glyph unicode="&#x2018;" horiz-adv-x="220" d="M39 510l81 217h50l-52 -217h-79z" />
<glyph unicode="&#x2019;" horiz-adv-x="220" d="M46 510l52 217h79l-81 -217h-50z" />
<glyph unicode="&#x201a;" horiz-adv-x="260" d="M52 -114l61 217h78l-87 -217h-52z" />
<glyph unicode="&#x201c;" horiz-adv-x="380" d="M33 510l81 217h50l-52 -217h-79zM212 510l81 217h50l-52 -217h-79z" />
<glyph unicode="&#x201d;" horiz-adv-x="380" d="M43 510l52 217h79l-81 -217h-50zM212 510l52 217h79l-81 -217h-50z" />
<glyph unicode="&#x201e;" horiz-adv-x="350" d="M33 -121l52 217h79l-81 -217h-50zM202 -121l52 217h79l-81 -217h-50z" />
<glyph unicode="&#x2022;" horiz-adv-x="350" d="M81 349q0 41 28 68q28 28 69 28q40 0 67 -28q29 -26 29 -68t-29 -68q-27 -28 -67 -28q-41 0 -69 28q-28 27 -28 68z" />
<glyph unicode="&#x2026;" horiz-adv-x="920" d="M130 0v95h69v-95h-69zM431 0v95h69v-95h-69zM718 0v95h69v-95h-69z" />
<glyph unicode="&#x202f;" horiz-adv-x="184" vert-adv-y="0" />
<glyph unicode="&#x2039;" horiz-adv-x="333" d="M55 257l154 223h52l-129 -223l129 -222h-52z" />
<glyph unicode="&#x203a;" horiz-adv-x="333" d="M55 35l129 224l-129 221h53l148 -218l-148 -227h-53z" />
<glyph unicode="&#x205f;" horiz-adv-x="230" vert-adv-y="0" />
<glyph unicode="&#x20ac;" horiz-adv-x="590" d="M1 267v55h77q-1 13 -1 41q0 30 1 45h-77v55h82q34 271 273 271q109 0 205 -30v-46q-98 20 -186 20q-189 0 -220 -215h294v-55h-299q-1 -15 -1 -45q0 -28 1 -41h299v-55h-294q30 -216 221 -216q70 0 185 22v-48q-107 -30 -205 -30q-122 0 -189 72t-84 200h-82z" />
<glyph unicode="&#x2122;" horiz-adv-x="900" d="M25 744v45h332l-14 -45h-124v-325h-55v325h-139zM402 419v370h68l149 -302l151 302h68v-370h-49v305l-143 -290h-54l-141 290v-305h-49z" />
</font>
</defs>
</svg>
